<svg width="29" height="35" viewBox="0 0 29 35" fill="none" xmlns="http://www.w3.org/2000/svg">
<path d="M21.8608 13.3252C22.1328 8.64506 18.5593 4.63053 13.8791 4.35854C9.19893 4.08654 5.1844 7.66008 4.91241 12.3403C4.64042 17.0204 8.21395 21.0349 12.8941 21.3069C17.5743 21.5789 21.5888 18.0054 21.8608 13.3252Z" fill="#FFBDBC"/>
<path d="M28.6996 18.182L26.5059 14.3285C26.8456 10.4972 25.663 6.77857 23.2445 4.09612C20.8629 1.45467 17.4804 0 13.7201 0L13.699 0.000271888C13.699 0.000271888 13.699 0.000271888 13.6989 0.000271888C9.51149 0.000271888 6.00672 1.40634 3.56354 4.06642C2.22803 5.52061 1.24495 7.28999 0.641633 9.32547C0.0918081 11.1808 -0.11034 13.2009 0.0572104 15.1675C0.333652 18.4133 2.40625 22.7897 7.37534 25.4981L7.42326 34.1256C7.42537 34.4996 7.72906 34.8016 8.10298 34.8016H17.1887C17.5641 34.8016 17.8684 34.4972 17.8684 34.1218V28.3881L23.5191 29.0013C24.1907 29.0734 24.8449 28.8739 25.3621 28.4403C25.8792 28.0067 26.1896 27.3972 26.2362 26.7191L26.5427 21.7288C27.7985 20.751 28.4903 20.1976 28.6005 20.0826C29.095 19.5669 29.1332 18.7609 28.6996 18.182ZM27.6239 19.1364C27.4584 19.2842 26.4088 20.1114 25.4661 20.8441C25.3119 20.964 25.2167 21.1442 25.2047 21.3391L24.8797 26.6309C24.8589 26.932 24.7201 27.2046 24.4888 27.3986C24.2573 27.5926 23.964 27.6815 23.6649 27.6498L17.2621 26.9549C17.0705 26.934 16.8785 26.9958 16.7348 27.1247C16.5911 27.2537 16.5091 27.4376 16.5091 27.6306V33.4422H8.77896L8.73253 25.0839C8.73111 24.8305 8.58884 24.599 8.36345 24.4831C3.62274 22.0472 1.66407 18.0141 1.41175 15.0521C1.088 11.2512 2.26671 7.48819 4.56484 4.98594C6.73973 2.61794 9.89071 1.36426 13.6782 1.35964C13.6795 1.35971 13.6807 1.35971 13.682 1.35978C13.6974 1.36019 13.7127 1.36005 13.7279 1.35937C17.095 1.36141 20.1161 2.65641 22.2348 5.00634C24.4423 7.45462 25.4984 10.8812 25.1327 14.4075C25.118 14.5486 25.1479 14.6907 25.218 14.814L27.5423 18.8971C27.5612 18.9302 27.5828 18.9617 27.607 18.9912C27.6434 19.0358 27.6504 19.1013 27.6239 19.1364Z" fill="#081E29"/>
</svg>
