<svg width="58" height="57" viewBox="0 0 58 57" fill="none" xmlns="http://www.w3.org/2000/svg">
<path d="M0.371094 0H57.3711C57.3711 31.4802 31.8513 57 0.371094 57V0Z" fill="white"/>
<path d="M13.1052 25.84C13.1052 29.76 15.4252 31.92 18.0652 31.92C20.4652 31.92 22.3052 30 22.3052 27.68C22.3052 25.28 20.7052 23.6 18.4652 23.6C18.0652 23.6 17.5052 23.68 17.4252 23.68C17.6652 21.12 19.9852 17.92 22.5452 16.24L19.5852 13.84C15.9052 16.48 13.1052 20.96 13.1052 25.84ZM25.9052 25.84C25.9052 29.76 28.2252 31.92 30.8652 31.92C33.2652 31.92 35.1852 30 35.1852 27.68C35.1852 25.28 33.5052 23.6 31.2652 23.6C30.8652 23.6 30.3052 23.68 30.2252 23.68C30.5452 21.12 32.7852 17.92 35.3452 16.24L32.3852 13.84C28.7052 16.48 25.9052 20.96 25.9052 25.84Z" fill="#00A0AA"/>
</svg>
