<svg width="69" height="69" viewBox="0 0 69 69" fill="none" xmlns="http://www.w3.org/2000/svg">
<circle cx="34.5" cy="34.5" r="34.5" fill="#00A0AA"/>
<g clip-path="url(#clip0_7046_155)">
<path d="M44.546 33.47C46.889 35.8115 46.889 39.611 44.546 41.954L36.0605 50.4395C35.4755 51.0245 34.5245 51.0245 33.9395 50.4395L25.454 41.954C23.111 39.611 23.111 35.8115 25.454 33.4685C27.797 31.1255 31.5965 31.1255 33.9395 33.4685L34.9985 34.529L36.0605 33.4685C38.4035 31.1255 42.203 31.1255 44.546 33.4685V33.47ZM27.575 35.588C26.405 36.7595 26.405 38.66 27.575 39.8315L35 47.2565L42.425 39.8315C43.595 38.66 43.595 36.7595 42.425 35.588C41.2535 34.418 39.353 34.418 38.18 35.591L34.997 38.768L31.817 35.588C30.647 34.418 28.7465 34.418 27.575 35.588ZM35 18.5C38.315 18.5 41 21.185 41 24.5C41 27.815 38.315 30.5 35 30.5C31.685 30.5 29 27.815 29 24.5C29 21.185 31.685 18.5 35 18.5ZM35 21.5C33.3425 21.5 32 22.8425 32 24.5C32 26.1575 33.3425 27.5 35 27.5C36.6575 27.5 38 26.1575 38 24.5C38 22.8425 36.6575 21.5 35 21.5Z" fill="white"/>
</g>
<defs>
<clipPath id="clip0_7046_155">
<rect width="36" height="36" fill="white" transform="translate(17 17)"/>
</clipPath>
</defs>
</svg>
