<svg width="14" height="18" viewBox="0 0 14 18" fill="none" xmlns="http://www.w3.org/2000/svg">
<path d="M6.34587 16.8518C1.53012 10.1198 0.63623 9.42886 0.63623 6.95472C0.63623 3.56569 3.48532 0.818359 6.99987 0.818359C10.5144 0.818359 13.3635 3.56569 13.3635 6.95472C13.3635 9.42886 12.4696 10.1198 7.65386 16.8518C7.33784 17.2921 6.66186 17.292 6.34587 16.8518ZM6.99987 9.51154C8.46426 9.51154 9.65138 8.36682 9.65138 6.95472C9.65138 5.54262 8.46426 4.3979 6.99987 4.3979C5.53547 4.3979 4.34835 5.54262 4.34835 6.95472C4.34835 8.36682 5.53547 9.51154 6.99987 9.51154Z" fill="#00A0AA"/>
</svg>
