<svg width="32" height="32" viewBox="0 0 32 32" fill="none" xmlns="http://www.w3.org/2000/svg">
<circle cx="16" cy="16" r="16" fill="#00A0AA"/>
<path d="M23.4601 10.666H9.42835C9.12984 10.666 8.88867 10.9007 8.88867 11.1913V21.6963C8.88867 21.9868 9.12984 22.2216 9.42835 22.2216H23.4601C23.7586 22.2216 23.9998 21.9868 23.9998 21.6963V11.1913C23.9998 10.9007 23.7586 10.666 23.4601 10.666ZM22.7855 12.4847V21.0398H10.103V12.4847L9.63748 12.1318L10.3003 11.3029L11.0221 11.8495H21.868L22.5899 11.3029L23.2527 12.1318L22.7855 12.4847ZM21.868 11.8478L16.4442 15.9514L11.0204 11.8478L10.2986 11.3012L9.63579 12.1302L10.1013 12.4831L15.8624 16.8427C16.0281 16.9679 16.2319 17.0359 16.4417 17.0359C16.6515 17.0359 16.8553 16.9679 17.021 16.8427L22.7855 12.4847L23.251 12.1318L22.5882 11.3029L21.868 11.8478Z" fill="white"/>
</svg>
