<svg width="117" height="36" viewBox="0 0 117 36" fill="none" xmlns="http://www.w3.org/2000/svg">
<path d="M37.748 27V10.9H39.588L46.281 21.917H45.085L51.778 10.9H53.618V27H50.973V15.546L51.571 15.707L46.603 23.872H44.763L39.795 15.707L40.393 15.546V27H37.748ZM61.8933 27.23C60.7893 27.23 59.7927 26.9847 58.9033 26.494C58.0293 25.988 57.3317 25.298 56.8103 24.424C56.3043 23.55 56.0513 22.5687 56.0513 21.48C56.0513 20.3913 56.3043 19.4177 56.8103 18.559C57.3163 17.685 57.9987 16.995 58.8573 16.489C59.7313 15.983 60.6973 15.73 61.7553 15.73C62.7827 15.73 63.6873 15.9677 64.4693 16.443C65.2667 16.9183 65.8877 17.57 66.3323 18.398C66.7923 19.226 67.0223 20.169 67.0223 21.227C67.0223 21.411 67.007 21.6027 66.9763 21.802C66.961 21.986 66.9303 22.193 66.8843 22.423H57.8223V20.353H65.5733L64.6303 21.181C64.5997 20.5063 64.4693 19.939 64.2393 19.479C64.0093 19.019 63.6797 18.6663 63.2503 18.421C62.8363 18.1757 62.3227 18.053 61.7093 18.053C61.0653 18.053 60.5057 18.191 60.0303 18.467C59.555 18.743 59.187 19.134 58.9263 19.64C58.6657 20.1307 58.5353 20.721 58.5353 21.411C58.5353 22.101 58.6733 22.7067 58.9493 23.228C59.2253 23.7493 59.6163 24.1557 60.1223 24.447C60.6283 24.723 61.211 24.861 61.8703 24.861C62.4377 24.861 62.959 24.7613 63.4343 24.562C63.925 24.3627 64.339 24.0713 64.6763 23.688L66.2863 25.321C65.7497 25.9497 65.098 26.425 64.3313 26.747C63.5647 27.069 62.752 27.23 61.8933 27.23ZM73.6735 27.23C72.6768 27.23 71.7721 26.977 70.9595 26.471C70.1621 25.965 69.5258 25.2827 69.0505 24.424C68.5905 23.55 68.3605 22.5763 68.3605 21.503C68.3605 20.4143 68.5905 19.4407 69.0505 18.582C69.5258 17.708 70.1621 17.018 70.9595 16.512C71.7721 15.9907 72.6768 15.73 73.6735 15.73C74.5168 15.73 75.2605 15.914 75.9045 16.282C76.5638 16.6347 77.0851 17.1253 77.4685 17.754C77.8518 18.3827 78.0435 19.0957 78.0435 19.893V23.067C78.0435 23.8643 77.8518 24.5773 77.4685 25.206C77.1005 25.8347 76.5868 26.333 75.9275 26.701C75.2681 27.0537 74.5168 27.23 73.6735 27.23ZM74.0875 24.838C74.7161 24.838 75.2605 24.7 75.7205 24.424C76.1958 24.1327 76.5638 23.734 76.8245 23.228C77.0851 22.722 77.2155 22.1393 77.2155 21.48C77.2155 20.8207 77.0851 20.238 76.8245 19.732C76.5638 19.226 76.1958 18.835 75.7205 18.559C75.2605 18.2677 74.7161 18.122 74.0875 18.122C73.4741 18.122 72.9298 18.2677 72.4545 18.559C71.9945 18.835 71.6265 19.226 71.3505 19.732C71.0898 20.238 70.9595 20.8207 70.9595 21.48C70.9595 22.1393 71.0898 22.722 71.3505 23.228C71.6265 23.734 71.9945 24.1327 72.4545 24.424C72.9298 24.7 73.4741 24.838 74.0875 24.838ZM79.5845 27H77.0545V24.033L77.4915 21.342L77.0545 18.674V10.44H79.5845V27ZM88.3033 27.23C87.4599 27.23 86.7086 27.0537 86.0493 26.701C85.3899 26.333 84.8686 25.8347 84.4853 25.206C84.1173 24.5773 83.9333 23.8643 83.9333 23.067V19.893C83.9333 19.0957 84.1249 18.3827 84.5083 17.754C84.8916 17.1253 85.4129 16.6347 86.0723 16.282C86.7316 15.914 87.4753 15.73 88.3033 15.73C89.2999 15.73 90.1969 15.9907 90.9943 16.512C91.8069 17.018 92.4433 17.708 92.9033 18.582C93.3786 19.4407 93.6163 20.4143 93.6163 21.503C93.6163 22.5763 93.3786 23.55 92.9033 24.424C92.4433 25.2827 91.8069 25.965 90.9943 26.471C90.1969 26.977 89.2999 27.23 88.3033 27.23ZM87.8893 24.838C88.5026 24.838 89.0393 24.7 89.4993 24.424C89.9746 24.1327 90.3426 23.734 90.6033 23.228C90.8793 22.722 91.0173 22.1393 91.0173 21.48C91.0173 20.8207 90.8793 20.238 90.6033 19.732C90.3426 19.226 89.9746 18.835 89.4993 18.559C89.0393 18.2677 88.5026 18.122 87.8893 18.122C87.2759 18.122 86.7316 18.2677 86.2563 18.559C85.7809 18.835 85.4129 19.226 85.1523 19.732C84.8916 20.238 84.7613 20.8207 84.7613 21.48C84.7613 22.1393 84.8916 22.722 85.1523 23.228C85.4129 23.734 85.7809 24.1327 86.2563 24.424C86.7316 24.7 87.2759 24.838 87.8893 24.838ZM82.3923 31.6V15.96H84.9223V18.927L84.4853 21.618L84.9223 24.286V31.6H82.3923ZM95.7341 27V15.96H98.2641V27H95.7341ZM98.2641 20.859L97.3901 20.422C97.3901 19.0267 97.6967 17.8997 98.3101 17.041C98.9387 16.167 99.8817 15.73 101.139 15.73C101.691 15.73 102.189 15.8297 102.634 16.029C103.079 16.2283 103.493 16.5503 103.876 16.995L102.22 18.697C102.021 18.4823 101.798 18.329 101.553 18.237C101.308 18.145 101.024 18.099 100.702 18.099C99.9967 18.099 99.4141 18.3213 98.9541 18.766C98.4941 19.2107 98.2641 19.9083 98.2641 20.859ZM109.823 27.23C108.75 27.23 107.776 26.977 106.902 26.471C106.028 25.9497 105.331 25.252 104.809 24.378C104.303 23.504 104.05 22.5303 104.05 21.457C104.05 20.3837 104.303 19.4177 104.809 18.559C105.331 17.7003 106.028 17.018 106.902 16.512C107.776 15.9907 108.75 15.73 109.823 15.73C110.912 15.73 111.893 15.983 112.767 16.489C113.641 16.995 114.331 17.685 114.837 18.559C115.359 19.4177 115.619 20.3837 115.619 21.457C115.619 22.5303 115.359 23.504 114.837 24.378C114.331 25.252 113.641 25.9497 112.767 26.471C111.893 26.977 110.912 27.23 109.823 27.23ZM109.823 24.792C110.452 24.792 111.004 24.654 111.479 24.378C111.97 24.0867 112.346 23.688 112.606 23.182C112.882 22.676 113.02 22.101 113.02 21.457C113.02 20.813 112.882 20.2457 112.606 19.755C112.33 19.2643 111.955 18.881 111.479 18.605C111.004 18.3137 110.452 18.168 109.823 18.168C109.21 18.168 108.658 18.3137 108.167 18.605C107.692 18.881 107.316 19.2643 107.04 19.755C106.78 20.2457 106.649 20.813 106.649 21.457C106.649 22.101 106.78 22.676 107.04 23.182C107.316 23.688 107.692 24.0867 108.167 24.378C108.658 24.654 109.21 24.792 109.823 24.792Z" fill="#081E29"/>
<g clip-path="url(#clip0_6765_1491)">
<path d="M3.95106 10.5863C5.40114 9.13599 7.34606 8.28769 9.39555 8.21165C11.4451 8.1356 13.4475 8.83744 15.0011 10.1763C16.5532 8.83967 18.553 8.13862 20.6001 8.21354C22.6471 8.28845 24.5903 9.1338 26.0406 10.5803C27.491 12.0269 28.3414 13.9679 28.4217 16.0147C28.502 18.0615 27.8062 20.0631 26.4736 21.6188L16.7673 31.3563C16.3214 31.8024 15.7233 32.0635 15.093 32.0871C14.4626 32.1108 13.8467 31.8953 13.3686 31.4838L13.2311 31.3576L3.52606 21.6188C2.19417 20.0645 1.49803 18.0647 1.57683 16.0193C1.65562 13.9739 2.50354 12.0336 3.95106 10.5863ZM5.71856 12.3538C4.69636 13.3763 4.10713 14.7531 4.07314 16.1985C4.03916 17.644 4.56304 19.0469 5.53606 20.1163L5.71856 20.3088L14.9998 29.5901L21.6286 22.9601L17.2098 18.5413L15.8848 19.8663C15.5366 20.2147 15.1233 20.491 14.6683 20.6796C14.2133 20.8682 13.7257 20.9653 13.2332 20.9654C12.2385 20.9656 11.2845 20.5707 10.5811 19.8676C9.87757 19.1644 9.48222 18.2106 9.48199 17.216C9.48176 16.2213 9.87665 15.2673 10.5798 14.5638L13.2073 11.9351C12.1616 11.1006 10.8528 10.6659 9.51567 10.7092C8.17851 10.7525 6.90055 11.2709 5.91106 12.1713L5.71856 12.3538ZM16.3261 15.8888C16.5605 15.6545 16.8784 15.5229 17.2098 15.5229C17.5413 15.5229 17.8591 15.6545 18.0936 15.8888L23.3961 21.1913L24.2811 20.3088C25.3204 19.2703 25.9121 17.8662 25.9296 16.397C25.9471 14.9278 25.3891 13.5101 24.3748 12.447C23.3606 11.3839 21.9706 10.7599 20.5022 10.7084C19.0338 10.6569 17.6036 11.182 16.5173 12.1713L16.3261 12.3538L12.3486 16.3313C12.1319 16.5479 12.0023 16.8364 11.9843 17.1422C11.9663 17.4479 12.0613 17.7497 12.2511 17.9901L12.3486 18.0988C12.5651 18.3155 12.8536 18.4451 13.1594 18.4631C13.4652 18.4811 13.7669 18.3861 14.0073 18.1963L14.1161 18.0988L16.3261 15.8888Z" fill="#081E29"/>
</g>
<defs>
<clipPath id="clip0_6765_1491">
<rect width="30" height="30" fill="white" transform="translate(0 5)"/>
</clipPath>
</defs>
</svg>
