<svg width="163" height="39" viewBox="0 0 163 39" fill="none" xmlns="http://www.w3.org/2000/svg">
<path d="M49.508 30V6.9H52.148L61.751 22.707H60.035L69.638 6.9H72.278V30H68.483V13.566L69.341 13.797L62.213 25.512H59.573L52.445 13.797L53.303 13.566V30H49.508ZM84.1513 30.33C82.5673 30.33 81.1373 29.978 79.8613 29.274C78.6073 28.548 77.6063 27.558 76.8583 26.304C76.1323 25.05 75.7693 23.642 75.7693 22.08C75.7693 20.518 76.1323 19.121 76.8583 17.889C77.5843 16.635 78.5633 15.645 79.7953 14.919C81.0493 14.193 82.4353 13.83 83.9533 13.83C85.4273 13.83 86.7253 14.171 87.8473 14.853C88.9913 15.535 89.8823 16.47 90.5203 17.658C91.1803 18.846 91.5103 20.199 91.5103 21.717C91.5103 21.981 91.4883 22.256 91.4443 22.542C91.4223 22.806 91.3783 23.103 91.3123 23.433H78.3103V20.463H89.4313L88.0783 21.651C88.0343 20.683 87.8473 19.869 87.5173 19.209C87.1873 18.549 86.7143 18.043 86.0983 17.691C85.5043 17.339 84.7673 17.163 83.8873 17.163C82.9633 17.163 82.1603 17.361 81.4783 17.757C80.7963 18.153 80.2683 18.714 79.8943 19.44C79.5203 20.144 79.3333 20.991 79.3333 21.981C79.3333 22.971 79.5313 23.84 79.9273 24.588C80.3233 25.336 80.8843 25.919 81.6103 26.337C82.3363 26.733 83.1723 26.931 84.1183 26.931C84.9323 26.931 85.6803 26.788 86.3623 26.502C87.0663 26.216 87.6603 25.798 88.1443 25.248L90.4543 27.591C89.6843 28.493 88.7493 29.175 87.6493 29.637C86.5493 30.099 85.3833 30.33 84.1513 30.33ZM101.053 30.33C99.6232 30.33 98.3252 29.967 97.1592 29.241C96.0152 28.515 95.1022 27.536 94.4202 26.304C93.7602 25.05 93.4302 23.653 93.4302 22.113C93.4302 20.551 93.7602 19.154 94.4202 17.922C95.1022 16.668 96.0152 15.678 97.1592 14.952C98.3252 14.204 99.6232 13.83 101.053 13.83C102.263 13.83 103.33 14.094 104.254 14.622C105.2 15.128 105.948 15.832 106.498 16.734C107.048 17.636 107.323 18.659 107.323 19.803V24.357C107.323 25.501 107.048 26.524 106.498 27.426C105.97 28.328 105.233 29.043 104.287 29.571C103.341 30.077 102.263 30.33 101.053 30.33ZM101.647 26.898C102.549 26.898 103.33 26.7 103.99 26.304C104.672 25.886 105.2 25.314 105.574 24.588C105.948 23.862 106.135 23.026 106.135 22.08C106.135 21.134 105.948 20.298 105.574 19.572C105.2 18.846 104.672 18.285 103.99 17.889C103.33 17.471 102.549 17.262 101.647 17.262C100.767 17.262 99.9862 17.471 99.3042 17.889C98.6442 18.285 98.1162 18.846 97.7202 19.572C97.3462 20.298 97.1592 21.134 97.1592 22.08C97.1592 23.026 97.3462 23.862 97.7202 24.588C98.1162 25.314 98.6442 25.886 99.3042 26.304C99.9862 26.7 100.767 26.898 101.647 26.898ZM109.534 30H105.904V25.743L106.531 21.882L105.904 18.054V6.24H109.534V30ZM122.044 30.33C120.834 30.33 119.756 30.077 118.81 29.571C117.864 29.043 117.116 28.328 116.566 27.426C116.038 26.524 115.774 25.501 115.774 24.357V19.803C115.774 18.659 116.049 17.636 116.599 16.734C117.149 15.832 117.897 15.128 118.843 14.622C119.789 14.094 120.856 13.83 122.044 13.83C123.474 13.83 124.761 14.204 125.905 14.952C127.071 15.678 127.984 16.668 128.644 17.922C129.326 19.154 129.667 20.551 129.667 22.113C129.667 23.653 129.326 25.05 128.644 26.304C127.984 27.536 127.071 28.515 125.905 29.241C124.761 29.967 123.474 30.33 122.044 30.33ZM121.45 26.898C122.33 26.898 123.1 26.7 123.76 26.304C124.442 25.886 124.97 25.314 125.344 24.588C125.74 23.862 125.938 23.026 125.938 22.08C125.938 21.134 125.74 20.298 125.344 19.572C124.97 18.846 124.442 18.285 123.76 17.889C123.1 17.471 122.33 17.262 121.45 17.262C120.57 17.262 119.789 17.471 119.107 17.889C118.425 18.285 117.897 18.846 117.523 19.572C117.149 20.298 116.962 21.134 116.962 22.08C116.962 23.026 117.149 23.862 117.523 24.588C117.897 25.314 118.425 25.886 119.107 26.304C119.789 26.7 120.57 26.898 121.45 26.898ZM113.563 36.6V14.16H117.193V18.417L116.566 22.278L117.193 26.106V36.6H113.563ZM132.705 30V14.16H136.335V30H132.705ZM136.335 21.189L135.081 20.562C135.081 18.56 135.521 16.943 136.401 15.711C137.303 14.457 138.656 13.83 140.46 13.83C141.252 13.83 141.967 13.973 142.605 14.259C143.243 14.545 143.837 15.007 144.387 15.645L142.011 18.087C141.725 17.779 141.406 17.559 141.054 17.427C140.702 17.295 140.295 17.229 139.833 17.229C138.821 17.229 137.985 17.548 137.325 18.186C136.665 18.824 136.335 19.825 136.335 21.189ZM152.92 30.33C151.38 30.33 149.983 29.967 148.729 29.241C147.475 28.493 146.474 27.492 145.726 26.238C145 24.984 144.637 23.587 144.637 22.047C144.637 20.507 145 19.121 145.726 17.889C146.474 16.657 147.475 15.678 148.729 14.952C149.983 14.204 151.38 13.83 152.92 13.83C154.482 13.83 155.89 14.193 157.144 14.919C158.398 15.645 159.388 16.635 160.114 17.889C160.862 19.121 161.236 20.507 161.236 22.047C161.236 23.587 160.862 24.984 160.114 26.238C159.388 27.492 158.398 28.493 157.144 29.241C155.89 29.967 154.482 30.33 152.92 30.33ZM152.92 26.832C153.822 26.832 154.614 26.634 155.296 26.238C156 25.82 156.539 25.248 156.913 24.522C157.309 23.796 157.507 22.971 157.507 22.047C157.507 21.123 157.309 20.309 156.913 19.605C156.517 18.901 155.978 18.351 155.296 17.955C154.614 17.537 153.822 17.328 152.92 17.328C152.04 17.328 151.248 17.537 150.544 17.955C149.862 18.351 149.323 18.901 148.927 19.605C148.553 20.309 148.366 21.123 148.366 22.047C148.366 22.971 148.553 23.796 148.927 24.522C149.323 25.248 149.862 25.82 150.544 26.238C151.248 26.634 152.04 26.832 152.92 26.832Z" fill="white"/>
<g clip-path="url(#clip0_6765_1632)">
<path d="M5.00474 8.07557C6.84151 6.23847 9.30507 5.16395 11.9011 5.06763C14.4971 4.97131 17.0335 5.8603 19.0014 7.55623C20.9675 5.86313 23.5006 4.97513 26.0935 5.07002C28.6864 5.16491 31.1478 6.23569 32.9849 8.06798C34.822 9.90026 35.8992 12.3588 36.0009 14.9515C36.1026 17.5441 35.2212 20.0795 33.5332 22.0501L21.2387 34.3842C20.6738 34.9493 19.9162 35.2799 19.1178 35.3099C18.3194 35.3398 17.5392 35.0669 16.9336 34.5457L16.7594 34.3858L4.46641 22.0501C2.77935 20.0812 1.89757 17.5482 1.99738 14.9573C2.09719 12.3665 3.17122 9.90877 5.00474 8.07557ZM7.24357 10.3144C5.94879 11.6095 5.20242 13.3535 5.15938 15.1844C5.11634 17.0152 5.77992 18.7923 7.01241 20.1469L7.24357 20.3907L18.9998 32.147L27.3962 23.749L21.7992 18.1519L20.1208 19.8302C19.6798 20.2715 19.1562 20.6215 18.5799 20.8604C18.0036 21.0992 17.3859 21.2222 16.7621 21.2224C15.5022 21.2227 14.2938 20.7225 13.4027 19.8318C12.5117 18.9412 12.0109 17.733 12.0106 16.4731C12.0103 15.2132 12.5105 14.0048 13.4012 13.1137L16.7293 9.78398C15.4048 8.72691 13.747 8.17641 12.0532 8.23125C10.3595 8.28609 8.74076 8.94269 7.48741 10.0832L7.24357 10.3144ZM20.6797 14.7921C20.9767 14.4952 21.3793 14.3285 21.7992 14.3285C22.219 14.3285 22.6217 14.4952 22.9186 14.7921L29.6351 21.5086L30.7561 20.3907C32.0725 19.0752 32.822 17.2968 32.8442 15.4358C32.8664 13.5748 32.1596 11.779 30.8749 10.4324C29.5901 9.08588 27.8295 8.29544 25.9696 8.23018C24.1096 8.16492 22.2979 8.83002 20.922 10.0832L20.6797 10.3144L15.6416 15.3526C15.3671 15.6268 15.2029 15.9923 15.1802 16.3796C15.1574 16.7669 15.2777 17.1491 15.5181 17.4536L15.6416 17.5914C15.9158 17.8658 16.2813 18.03 16.6686 18.0528C17.0559 18.0756 17.4381 17.9553 17.7427 17.7149L17.8804 17.5914L20.6797 14.7921Z" fill="white"/>
</g>
<defs>
<clipPath id="clip0_6765_1632">
<rect width="38" height="38" fill="white" transform="translate(0 1)"/>
</clipPath>
</defs>
</svg>
