<svg width="32" height="32" viewBox="0 0 32 32" fill="none" xmlns="http://www.w3.org/2000/svg">
<circle cx="16" cy="16" r="16" fill="#00A0AA"/>
<path d="M9.50949 11.1408L11.4028 9.24952C11.6339 9.01843 11.9433 8.88867 12.2704 8.88867C12.5975 8.88867 12.9068 9.01666 13.138 9.24952L15.1771 11.2848C15.4082 11.5159 15.538 11.827 15.538 12.154C15.538 12.4829 15.41 12.7904 15.1771 13.0233L13.5842 14.6177C13.9471 15.4631 14.4684 16.2312 15.1202 16.8806C15.7726 17.5365 16.5353 18.0537 17.3815 18.4199L18.9744 16.8255C19.2055 16.5944 19.5149 16.4646 19.842 16.4646C20.0033 16.464 20.1632 16.4956 20.3121 16.5576C20.4611 16.6195 20.5962 16.7106 20.7095 16.8255L22.7504 18.8608C22.9815 19.0918 23.1113 19.4029 23.1113 19.73C23.1113 20.0588 22.9833 20.3663 22.7504 20.5992L20.8589 22.4905C20.4642 22.8851 19.9202 23.1109 19.362 23.1109C19.2464 23.1109 19.1344 23.102 19.0206 23.0825C16.6669 22.6949 14.3308 21.4418 12.4446 19.5576C10.5602 17.6698 9.3086 15.3341 8.91749 12.9788C8.80549 12.3105 9.02949 11.6226 9.50949 11.1408ZM10.1779 12.7673C10.5246 14.863 11.6517 16.9534 13.3495 18.651C15.0473 20.3486 17.1362 21.4755 19.2322 21.8222C19.4953 21.8666 19.7655 21.7777 19.9575 21.5875L21.8153 19.73L19.8455 17.7587L17.7157 19.8917L17.6997 19.9077L17.3157 19.7655C16.1514 19.3375 15.0941 18.6615 14.2171 17.7842C13.3401 16.907 12.6643 15.8496 12.2366 14.6853L12.0944 14.3013L14.242 12.1558L12.2722 10.1845L10.4144 12.0421C10.2224 12.234 10.1335 12.5042 10.1779 12.7673Z" fill="white"/>
</svg>
