<svg width="57" height="60" viewBox="0 0 57 60" fill="none" xmlns="http://www.w3.org/2000/svg">
<path d="M3.15789 0.75H11.8816V5.56579H6.31579H5.56579V6.31579V18.9474C5.56579 26.3405 11.5542 32.3289 18.9474 32.3289C26.3405 32.3289 32.3289 26.3405 32.3289 18.9474V6.31579V5.56579H31.5789H26.0132V0.75H34.7368C36.0658 0.75 37.1447 1.82895 37.1447 3.15789V18.9474C37.1447 27.9633 30.5881 35.4463 21.981 36.893L21.3553 36.9982V37.6326V42.6316C21.3553 49.15 26.6395 54.4342 33.1579 54.4342C38.2073 54.4342 42.5159 51.2632 44.2016 46.803L44.4517 46.1412L43.8055 45.8529C40.7603 44.4947 38.6447 41.4414 38.6447 37.8947C38.6447 33.0763 42.55 29.1711 47.3684 29.1711C52.1868 29.1711 56.0921 33.0763 56.0921 37.8947C56.0921 41.8802 53.4178 45.2428 49.7649 46.284L49.3523 46.4016L49.2446 46.8169C47.3893 53.9691 40.8889 59.25 33.1579 59.25C23.9784 59.25 16.5395 51.8111 16.5395 42.6316V37.6326V36.998L15.9135 36.893C7.30678 35.4494 0.75 27.9635 0.75 18.9474V3.15789C0.75 1.82895 1.82895 0.75 3.15789 0.75ZM47.3684 33.9868C45.211 33.9868 43.4605 35.7374 43.4605 37.8947C43.4605 40.0521 45.211 41.8026 47.3684 41.8026C49.5258 41.8026 51.2763 40.0521 51.2763 37.8947C51.2763 35.7374 49.5258 33.9868 47.3684 33.9868Z" fill="#081E29" stroke="white" stroke-width="1.5"/>
<path d="M10 12C10 10.8954 10.8954 10 12 10H26C27.1046 10 28 10.8954 28 12V19C28 23.9706 23.9706 28 19 28C14.0294 28 10 23.9706 10 19V12Z" fill="#D7ECBC"/>
</svg>
