<svg width="53" height="63" viewBox="0 0 53 63" fill="none" xmlns="http://www.w3.org/2000/svg">
<path d="M39.5725 24.1242C40.0649 15.6519 33.5959 8.38454 25.1236 7.89217C16.6512 7.39979 9.38391 13.8688 8.89153 22.3411C8.39915 30.8135 14.8682 38.0808 23.3405 38.5732C31.8128 39.0656 39.0802 32.5965 39.5725 24.1242Z" fill="#FFBDBC"/>
<circle cx="24.75" cy="23.75" r="4.75" fill="white" stroke="#081E29" stroke-width="2"/>
<path d="M51.9536 32.9142L47.9826 25.9384C48.5974 19.0026 46.4568 12.271 42.0786 7.41505C37.7673 2.63332 31.644 0 24.837 0L24.7987 0.000492187C24.7987 0.000492187 24.7987 0.000492187 24.7986 0.000492187C17.2183 0.000492187 10.8737 2.54584 6.45093 7.36127C4.03331 9.99374 2.25369 13.1968 1.16152 16.8815C0.166197 20.2401 -0.199745 23.897 0.103566 27.457C0.603997 33.3328 4.35594 41.2553 13.3513 46.1582L13.438 61.7763C13.4418 62.4531 13.9916 62.9998 14.6685 62.9998H31.116C31.7956 62.9998 32.3465 62.4488 32.3465 61.7694V51.3898L42.5758 52.4999C43.7915 52.6304 44.9758 52.2693 45.9119 51.4843C46.8481 50.6995 47.4099 49.5961 47.4943 48.3686L48.0492 39.3347C50.3225 37.5647 51.5749 36.5629 51.7744 36.3547C52.6695 35.4211 52.7387 33.962 51.9536 32.9142ZM50.0064 34.6419C49.7068 34.9094 47.8067 36.4068 46.1002 37.7333C45.8211 37.9502 45.6488 38.2765 45.6271 38.6293L45.0387 48.2088C45.0011 48.7538 44.7497 49.2474 44.331 49.5986C43.9119 49.9497 43.3811 50.1107 42.8396 50.0532L31.2489 48.7953C30.9021 48.7575 30.5544 48.8694 30.2943 49.1028C30.0342 49.3362 29.8857 49.6692 29.8857 50.0185V60.539H15.8922L15.8082 45.4085C15.8056 44.9497 15.548 44.5305 15.14 44.3208C6.55811 39.9111 3.01239 32.6102 2.55564 27.2482C1.96957 20.3676 4.10332 13.5556 8.26354 9.02585C12.2007 4.73915 17.9047 2.46967 24.761 2.46131C24.7634 2.46143 24.7656 2.46143 24.7679 2.46155C24.7959 2.46229 24.8235 2.46204 24.851 2.46081C30.9464 2.4645 36.4153 4.80879 40.2508 9.06277C44.2469 13.4948 46.1588 19.6978 45.4966 26.0814C45.4701 26.3367 45.5242 26.594 45.6512 26.8172L49.8588 34.2086C49.8929 34.2685 49.9321 34.3256 49.9758 34.379C50.0417 34.4598 50.0544 34.5784 50.0064 34.6419Z" fill="#081E29"/>
</svg>
