<svg width="65" height="60" viewBox="0 0 65 60" fill="none" xmlns="http://www.w3.org/2000/svg">
<path d="M28.8689 51.4496C29.8474 52.0681 30.815 52.6597 31.9205 53.3185L32.4324 53.6235L32.9443 53.3185C34.0499 52.6597 35.0168 52.0685 35.9939 51.4541L35.9953 51.4532C38.8761 49.6352 41.4855 47.8208 43.9329 45.8733C53.7229 38.0898 59.3784 29.432 59.3784 19.4595C59.3784 11.3624 54.0491 5.48649 47.027 5.48649C43.2116 5.48649 39.1953 7.48811 36.3121 10.3645L36.3113 10.3653L32.4324 14.2442L28.5536 10.3653L28.5528 10.3645C25.6696 7.48811 21.6533 5.48649 17.8378 5.48649C10.8919 5.48649 5.48649 11.4126 5.48649 19.4595C5.48649 29.4355 11.1455 38.0901 20.9288 45.8734L20.9292 45.8737C23.3793 47.8206 25.9881 49.6347 28.8689 51.4496ZM28.8689 51.4496L29.4032 50.6043L28.8702 51.4504C28.8698 51.4502 28.8694 51.4499 28.8689 51.4496ZM31.7253 7.19359L32.4324 7.9007L33.1395 7.19359C36.263 4.07017 41.3423 1 47.027 1C56.2671 1 63.8649 8.5978 63.8649 19.4595C63.8649 30.424 57.9962 39.0979 51.0032 45.6913C44.8053 51.535 37.8235 55.6539 33.4665 58.2242C33.1029 58.4388 32.7575 58.6425 32.4324 58.8356C32.1074 58.6425 31.762 58.4388 31.3984 58.2243C27.0414 55.6539 20.0595 51.535 13.8617 45.6913C6.8687 39.0979 1 30.424 1 19.4595C1 8.60241 8.71664 1 17.8378 1C23.5226 1 28.6019 4.07017 31.7253 7.19359Z" fill="#081E29" stroke="white" stroke-width="2"/>
<circle cx="32.5" cy="30.5" r="12.5" fill="#FFF59B"/>
<circle cx="32.75" cy="30.75" r="4.75" fill="white" stroke="#081E29" stroke-width="2"/>
</svg>
