<svg width="60" height="60" viewBox="0 0 60 60" fill="none" xmlns="http://www.w3.org/2000/svg">
<mask id="mask0_7025_173" style="mask-type:alpha" maskUnits="userSpaceOnUse" x="12" y="12" width="36" height="36">
<circle cx="30" cy="30" r="18" fill="#D9D9D9"/>
</mask>
<g mask="url(#mask0_7025_173)">
<path d="M30 0C46.569 0 60 13.431 60 30C60 46.569 46.569 60 30 60C13.431 60 0 46.569 0 30C0 13.431 13.431 0 30 0ZM30 6C23.6348 6 17.5303 8.52856 13.0294 13.0294C8.52856 17.5303 6 23.6348 6 30C6 36.3652 8.52856 42.4697 13.0294 46.9706C17.5303 51.4714 23.6348 54 30 54C36.3652 54 42.4697 51.4714 46.9706 46.9706C51.4714 42.4697 54 36.3652 54 30C54 23.6348 51.4714 17.5303 46.9706 13.0294C42.4697 8.52856 36.3652 6 30 6ZM30 15C33.1578 15.0012 36.2346 15.9989 38.7922 17.851C41.3497 19.7031 43.2576 22.3151 44.2439 25.3149C45.2302 28.3147 45.2446 31.5492 44.2851 34.5577C43.3257 37.5661 41.4412 40.1951 38.9003 42.0699C36.3594 43.9448 33.2916 44.97 30.1339 44.9993C26.9763 45.0287 23.89 44.0609 21.3146 42.2337C18.7392 40.4064 16.8061 37.813 15.7908 34.8229C14.7755 31.8329 14.7297 28.5986 15.66 25.581C16.3618 27.1491 17.5808 28.4287 19.1132 29.2055C20.6455 29.9823 22.3982 30.2093 24.0778 29.8484C25.7575 29.4875 27.2623 28.5607 28.3403 27.223C29.4184 25.8853 30.0043 24.218 30 22.5C30.0004 21.0554 29.5836 19.6414 28.7997 18.428C28.0157 17.2146 26.8981 16.2534 25.581 15.66C26.979 15.231 28.461 15 30 15Z" fill="#9BE1FF"/>
</g>
<circle cx="30" cy="30" r="28.5" stroke="#081E29" stroke-width="3"/>
</svg>
