<svg width="50" height="60" viewBox="0 0 50 60" fill="none" xmlns="http://www.w3.org/2000/svg">
<path d="M25.2064 7.45575L24.8528 7.1022L24.4993 7.45575L10.8302 21.1248L10.8302 21.1248C8.05714 23.8982 6.16872 27.4315 5.40374 31.2781C4.63876 35.1247 5.03158 39.1117 6.53252 42.7351C8.03346 46.3584 10.5751 49.4553 13.8361 51.6342C17.0971 53.813 20.9309 54.976 24.8528 54.976C28.7747 54.976 32.6086 53.813 35.8695 51.6342C39.1305 49.4553 41.6722 46.3584 43.1731 42.7351C44.6741 39.1117 45.0669 35.1247 44.3019 31.2781C43.5369 27.4315 41.6485 23.8982 38.8754 21.1248L38.5219 21.4784L38.8754 21.1248L25.2064 7.45575ZM24.8528 0.707107L42.073 17.9273C45.4787 21.3331 47.7981 25.6723 48.7377 30.3963C49.6774 35.1203 49.1951 40.0168 47.3519 44.4667C45.5086 48.9165 42.3873 52.7199 38.3825 55.3958C34.3777 58.0717 29.6693 59.5 24.8528 59.5C20.0363 59.5 15.3279 58.0717 11.3232 55.3958C7.31836 52.7199 4.197 48.9165 2.35379 44.4667C0.510572 40.0168 0.0282873 35.1203 0.967922 30.3963C1.90756 25.6723 4.22691 21.3331 7.63268 17.9273L24.8528 0.707107ZM38.1506 35.6474C38.0248 38.995 36.6398 42.1795 34.2624 44.557C31.7668 47.0525 28.3821 48.4545 24.8528 48.4545C21.3236 48.4545 17.9388 47.0525 15.4433 44.557C13.0658 42.1795 11.6808 38.995 11.5551 35.6474H38.1506Z" fill="black" stroke="white"/>
<mask id="mask0_6868_214" style="mask-type:alpha" maskUnits="userSpaceOnUse" x="10" y="35" width="30" height="17">
<rect x="10" y="35" width="30" height="17" fill="#C1C0FE"/>
</mask>
<g mask="url(#mask0_6868_214)">
<ellipse cx="25.5356" cy="35.5" rx="14.4643" ry="13.5" fill="#C1C0FE"/>
</g>
</svg>
