<svg width="115" height="87" viewBox="0 0 115 87" fill="none" xmlns="http://www.w3.org/2000/svg">
<path d="M73.7685 85.2169C69.2344 85.2169 64.7457 84.2452 60.5455 82.3066C42.9045 74.1646 35.1945 51.3111 43.3592 31.3605C47.5559 21.1077 55.4442 13.0698 64.9994 9.30869C73.364 6.01432 82.3484 6.22373 90.2977 9.89146C107.939 18.0335 115.649 40.887 107.484 60.8364C103.287 71.0893 95.3991 79.1272 85.8427 82.8894C81.8985 84.4415 77.8155 85.2169 73.7685 85.2169ZM77.0724 9.37691C73.3221 9.37691 69.5359 10.0949 65.8765 11.5357C56.9244 15.0586 49.5256 22.6154 45.5754 32.2676C37.8882 51.049 45.0549 72.5217 61.5495 80.1335C68.9017 83.526 77.2172 83.7127 84.9667 80.6625C93.9188 77.1395 101.319 69.5827 105.269 59.9305C112.956 41.1503 105.791 19.6776 89.2949 12.0658C85.4142 10.2744 81.2654 9.37691 77.0724 9.37691Z" fill="#1D1B2D"/>
<path d="M73.767 76.5831C70.0251 76.5831 66.319 75.7814 62.8524 74.1815C48.3059 67.4683 41.9445 48.6318 48.6709 32.1935C52.1304 23.7451 58.6306 17.1205 66.5093 14.0199C73.4116 11.3024 80.8272 11.4735 87.3896 14.5022C101.936 21.2154 108.297 40.0506 101.57 56.489C98.1116 64.9374 91.6115 71.5608 83.7327 74.6625C80.4778 75.9441 77.1069 76.5831 73.767 76.5831ZM76.4726 14.495C73.4284 14.495 70.3577 15.0778 67.3865 16.2469C60.1132 19.1093 54.0989 25.2517 50.8871 33.0993C44.637 48.3685 50.4563 65.8229 63.8552 72.0072C69.8205 74.7618 76.5695 74.9114 82.8567 72.4343C90.1299 69.5708 96.1444 63.4284 99.355 55.5808C105.606 40.3115 99.7881 22.8584 86.3881 16.6741C83.2409 15.2238 79.8747 14.495 76.4726 14.495Z" fill="#1D1B2D"/>
<path d="M72.8226 66.5014C70.1038 66.5014 67.4113 65.9187 64.8911 64.7555C54.3486 59.8911 49.7332 46.2553 54.6011 34.3606C57.1033 28.2482 61.811 23.4532 67.519 21.2059C72.5318 19.2338 77.9191 19.3583 82.6841 21.5577C93.2266 26.4221 97.8421 40.0579 92.9753 51.9526C90.4719 58.0662 85.7643 62.86 80.0563 65.1061C77.6929 66.0371 75.247 66.5014 72.8226 66.5014ZM74.7516 22.2075C72.6227 22.2075 70.4735 22.6155 68.395 23.434C63.2912 25.442 59.0718 29.7559 56.8162 35.2677C52.4256 45.9933 56.4967 58.2469 65.8928 62.5824C70.0631 64.5078 74.7826 64.6131 79.1791 62.8804C84.2828 60.8724 88.5034 56.5585 90.7591 51.0467C95.1484 40.3211 91.0762 28.0675 81.6813 23.732C79.4831 22.7161 77.1305 22.2075 74.7516 22.2075Z" fill="#1D1B2D"/>
<path d="M72.8406 57.7444C71.0887 57.7444 69.3548 57.3687 67.7309 56.6196C60.9734 53.5011 58.0082 44.7799 61.1182 37.18C62.717 33.2742 65.7301 30.2083 69.3846 28.77C72.6096 27.5003 76.0775 27.5805 79.1493 28.9973C85.9068 32.1158 88.8733 40.837 85.7632 48.4381C84.1633 52.3451 81.1489 55.4098 77.4955 56.8481C75.9746 57.4465 74.401 57.7444 72.8406 57.7444ZM74.0372 30.2682C72.7724 30.2682 71.4955 30.5111 70.2606 30.9969C67.2103 32.1984 64.6854 34.7819 63.3332 38.0871C60.7006 44.5179 63.1226 51.8569 68.7337 54.4465C71.2071 55.5881 74.0061 55.6491 76.6196 54.6212C79.6699 53.4209 82.1948 50.8362 83.5482 47.531C86.1808 41.099 83.7576 33.76 78.1465 31.1716C76.8422 30.5697 75.4469 30.2682 74.0372 30.2682Z" fill="#1D1B2D"/>
<path d="M77.0457 38.6854C79.1087 41.0583 79.0261 44.7883 76.8626 47.0164C74.6991 49.2446 71.2719 49.1285 69.2088 46.7568C67.1458 44.385 67.2284 40.6538 69.3919 38.4257C71.5567 36.1963 74.9827 36.3124 77.0457 38.6854Z" fill="#E73881"/>
<path d="M71.835 43.6729C71.6184 43.6729 71.4007 43.6142 71.2044 43.4922C70.9208 43.3151 49.5702 30.0143 33.2001 19.7195C30.8774 19.8691 28.7234 21.9836 28.6994 22.0075C28.3165 22.3869 27.7242 22.4659 27.2587 22.199C18.7433 17.3155 9.03493 17.1791 8.938 17.1779C8.5802 17.1755 8.24276 17.0115 8.01659 16.7339C7.79162 16.4563 7.70188 16.0913 7.77488 15.7407C8.22482 13.552 13.7976 11.1994 18.1043 9.69044C15.6835 6.55283 15.6404 1.45392 15.6404 1.19903C15.6392 0.765847 15.8714 0.367362 16.2495 0.154359C16.6253 -0.0574481 17.0872 -0.0514754 17.4581 0.173495L32.2296 9.13041C32.567 9.33504 32.7824 9.69284 32.8028 10.0877C32.9703 13.1081 35.2583 18.0131 35.281 18.0622C35.3085 18.122 35.3313 18.1831 35.3492 18.2441C51.5877 28.4515 72.1892 41.2867 72.4669 41.4603C73.0281 41.8097 73.1992 42.548 72.8498 43.108C72.6248 43.473 72.2347 43.6729 71.835 43.6729ZM11.8483 14.9772C15.4011 15.3518 21.6859 16.4539 27.6955 19.704C28.3057 19.2062 29.2775 18.5074 30.4585 17.9952C26.4893 15.4954 22.9304 13.2445 20.2045 11.5046C16.8479 12.6258 13.7174 13.9433 11.8483 14.9772ZM21.0194 9.18546C23.8267 10.9792 27.6129 13.3737 31.8634 16.0506C31.2807 14.4758 30.6739 12.5373 30.4717 10.8644L18.2324 3.44275C18.5555 5.50338 19.3321 8.10369 21.0062 9.17708C21.0122 9.18067 21.0158 9.18307 21.0194 9.18546Z" fill="#1D1B2D"/>
<path d="M78.4251 86.0917C71.7789 86.0917 66.9181 84.5433 66.796 84.5038C66.1702 84.2955 65.8291 83.6206 66.0361 82.9924C66.2432 82.3653 66.9193 82.0243 67.5475 82.2313C68.713 82.6131 96.1989 91.2959 108.475 63.6929C114.886 49.2792 112.647 37.9841 109.641 31.0471C106.113 22.9087 99.291 16.071 92.2595 13.6299C91.636 13.4133 91.3045 12.7312 91.5223 12.1065C91.7389 11.4831 92.421 11.1516 93.0457 11.3682C100.796 14.0607 107.998 21.2369 111.838 30.0945C115.035 37.4719 117.427 49.4575 110.664 64.6645C102.723 82.5185 88.5176 86.0917 78.4251 86.0917Z" fill="#1D1B2D"/>
<path d="M109.879 30.5158C109.662 30.5158 109.443 30.4571 109.246 30.3339L105.102 27.7443C104.542 27.3937 104.372 26.6554 104.722 26.0954C105.072 25.5353 105.81 25.3642 106.371 25.7148L110.515 28.3044C111.075 28.655 111.245 29.3933 110.895 29.9533C110.667 30.3159 110.277 30.5158 109.879 30.5158Z" fill="#1D1B2D"/>
<path d="M111.95 35.4376C111.817 35.4376 111.68 35.4149 111.548 35.367L107.922 34.0722C107.299 33.8497 106.975 33.1652 107.197 32.5429C107.419 31.9207 108.105 31.594 108.725 31.819L112.351 33.1137C112.975 33.3363 113.299 34.0208 113.075 34.643C112.903 35.1313 112.442 35.4376 111.95 35.4376Z" fill="#1D1B2D"/>
<path d="M8.7064 65.9079C8.42518 65.9043 8.12483 65.7858 7.91302 65.5573C7.66293 65.2868 6.9186 64.4779 7.57676 55.7543C5.12483 55.1668 0.869521 53.9378 0.140762 52.3558C-0.0578821 51.9214 -0.0458975 51.4547 0.174286 51.0419C1.16511 49.1823 5.67289 49.6011 8.22176 50.0032C8.59511 48.9167 8.93374 47.8205 9.24008 46.8333C10.347 43.2625 11.0147 41.1061 12.4579 40.9099C12.7738 40.8668 13.1041 40.9637 13.3566 41.1899C14.0757 41.8301 14.1595 43.3774 14.0614 48.0156C14.0363 49.1763 14.0051 50.6925 14.0626 51.3985C21.4088 53.1672 22.1962 54.7372 22.0526 55.9099C22.0131 56.2354 21.8372 56.5333 21.5584 56.7475C20.4264 57.6199 16.3039 57.2621 13.5098 56.8983C10.268 65.8528 9.29156 65.9079 8.7064 65.9079ZM1.90944 51.7623C2.64418 52.4181 5.64057 53.4914 8.72553 54.1771C9.16231 54.274 9.46026 54.6785 9.42556 55.1249C9.20298 57.8676 9.07136 60.9908 9.1276 62.8624C9.95329 61.1644 11.1308 58.229 12.0666 55.6071C12.209 55.2062 12.5943 54.9561 13.0383 55.0196C15.6434 55.3869 18.7188 55.5999 19.992 55.4336C19.4439 55.0172 17.8595 54.1364 13.3817 53.0786L13.1519 53.0236C12.1683 52.777 12.1886 51.7599 12.2688 47.9749C12.2963 46.6634 12.3382 44.726 12.2545 43.4958C11.856 44.4603 11.3546 46.0758 10.9561 47.361C10.578 48.5816 10.1495 49.9649 9.66491 51.3159C9.51652 51.7276 9.09411 51.9693 8.65973 51.8951C5.76384 51.3734 2.69803 51.3291 1.90944 51.7623Z" fill="#1D1B2D"/>
</svg>
