<svg width="551" height="650" viewBox="0 0 551 650" fill="none" xmlns="http://www.w3.org/2000/svg">
<mask id="mask0_254_3152" style="mask-type:alpha" maskUnits="userSpaceOnUse" x="0" y="0" width="551" height="650">
<path d="M0.902344 0H500.902C528.517 0 550.902 22.3858 550.902 50V600C550.902 627.614 528.517 650 500.902 650H0.902344V0Z" fill="#F6F3FF"/>
</mask>
<g mask="url(#mask0_254_3152)">
<g opacity="0.1">
<path d="M382.902 182.48V169H396.382V182.48H382.902Z" fill="#FFBB1B"/>
<path d="M381.902 78.48V65H395.382V78.48H381.902Z" fill="#6341F0"/>
<path d="M391.16 582.244V568.764H404.64V582.244H391.16Z" fill="#6341F0"/>
<path d="M150.902 179.48V166H164.382V179.48H150.902Z" fill="#6341F0"/>
<path d="M138.41 76.7437V63.2637H151.89V76.7437H138.41Z" fill="#FFBB1B"/>
<path d="M140.902 551.48V538H154.382V551.48H140.902Z" fill="#FFBB1B"/>
<path d="M306.91 160.994V147.514H320.39V160.994H306.91Z" fill="#6341F0"/>
<path d="M306.91 76.7437V63.2637H320.39V76.7437H306.91Z" fill="#FFBB1B"/>
<path d="M43.9023 170.48V157H57.3823V170.48H43.9023Z" fill="#FFBB1B"/>
<path d="M46.9023 66.48V53H60.3823V66.48H46.9023Z" fill="#6341F0"/>
<path d="M33.9023 296.48V283H47.3823V296.48H33.9023Z" fill="#6341F0"/>
<path d="M57.9023 408.48V395H71.3823V408.48H57.9023Z" fill="#FFBB1B"/>
<path d="M51.9023 601.48V588H65.3823V601.48H51.9023Z" fill="#6341F0"/>
<path d="M475.41 160.994V147.514H488.89V160.994H475.41Z" fill="#6341F0"/>
<path d="M451.902 392.48V379H465.382V392.48H451.902Z" fill="#FFBB1B"/>
<path d="M475.902 62.48V49H489.382V62.48H475.902Z" fill="#FFBB1B"/>
<path d="M492.902 272.48V259H506.382V272.48H492.902Z" fill="#FFBB1B"/>
<path d="M475.902 613.48V600H489.382V613.48H475.902Z" fill="#FFBB1B"/>
</g>
</g>
</svg>
