<svg width="239" height="40" viewBox="0 0 239 40" fill="none" xmlns="http://www.w3.org/2000/svg">
<mask id="mask0_8592_1494" style="mask-type:luminance" maskUnits="userSpaceOnUse" x="3" y="4" width="75" height="32">
<path d="M77.2927 4H3V36H77.2927V4Z" fill="white"/>
</mask>
<g mask="url(#mask0_8592_1494)">
<path d="M5.7295 20.7982V26.6335H9.3239C10.1795 26.6335 10.8877 26.3457 11.448 25.7698C12.0234 25.1942 12.3116 24.5093 12.3116 23.7157C12.3116 22.9379 12.0234 22.2609 11.448 21.6851C10.8877 21.0939 10.1795 20.7982 9.3239 20.7982H5.7295ZM5.7295 28.6873V35.4564H3.58203V18.7441H9.27737C10.7244 18.7441 11.9536 19.2266 12.9651 20.1913C13.9922 21.1563 14.5056 22.331 14.5056 23.7157C14.5056 25.1321 13.9922 26.3147 12.9651 27.2636C11.9691 28.213 10.7398 28.6873 9.27737 28.6873H5.7295Z" fill="white" fill-opacity="0.4"/>
<path d="M17.4703 31.9549C17.4703 32.5152 17.7073 32.982 18.1822 33.3553C18.6566 33.729 19.2127 33.9156 19.8511 33.9156C20.7532 33.9156 21.5586 33.5813 22.2669 32.9121C22.9749 32.2432 23.3288 31.4571 23.3288 30.5545C22.6596 30.0256 21.726 29.7609 20.5279 29.7609C19.6562 29.7609 18.929 29.9711 18.3456 30.3911C17.7621 30.8112 17.4703 31.3328 17.4703 31.9549ZM20.2478 23.6455C21.8351 23.6455 23.0876 24.0697 24.0058 24.9175C24.9237 25.7659 25.383 26.9291 25.383 28.4071V35.4561H23.3288V33.8691H23.2357C22.3485 35.176 21.1659 35.8295 19.6877 35.8295C18.4274 35.8295 17.373 35.4561 16.5249 34.7092C15.6767 33.9622 15.2529 33.0287 15.2529 31.9084C15.2529 30.726 15.6999 29.7842 16.5949 29.0841C17.4898 28.3837 18.684 28.0336 20.1778 28.0336C21.4536 28.0336 22.504 28.267 23.3288 28.7339V28.2437C23.3288 27.4969 23.0331 26.8629 22.4421 26.3415C21.8505 25.8203 21.1582 25.5595 20.3646 25.5595C19.1662 25.5595 18.2171 26.0654 17.517 27.0767L15.6264 25.8863C16.6687 24.3926 18.2092 23.6455 20.2478 23.6455Z" fill="white" fill-opacity="0.4"/>
<path d="M41.2085 35.6438C40.2747 35.6438 39.5005 35.356 38.886 34.7802C38.271 34.2045 37.9559 33.4031 37.9406 32.376V25.9806H35.9333V24.0199H37.9406V20.5186H40.088V24.0199H42.889V25.9806H40.088V31.6758C40.088 32.4383 40.2357 32.956 40.5315 33.228C40.8269 33.5005 41.1617 33.6364 41.5351 33.6364C41.7064 33.6364 41.8737 33.617 42.037 33.578C42.2004 33.5395 42.352 33.4888 42.4921 33.4264L43.1691 35.3404C42.6089 35.5424 41.9553 35.6438 41.2085 35.6438ZM27.8105 24.0199H29.8646V25.8872H29.9579C30.5959 24.4248 31.9107 23.6932 33.9027 23.6932L34.3462 23.7397V25.9806L33.389 25.8872C32.393 25.8872 31.5722 26.1945 30.9267 26.8093C30.2806 27.4241 29.9579 28.2059 29.9579 29.1549V35.457H27.8105V24.0199Z" fill="white" fill-opacity="0.4"/>
<path d="M45.0586 24.019H47.1127V25.606H47.2061C47.5328 25.0459 48.0346 24.5791 48.7118 24.2056C49.3884 23.8322 50.0924 23.6455 50.824 23.6455C52.2245 23.6455 53.3018 24.0462 54.0566 24.8475C54.8113 25.649 55.1888 26.789 55.1888 28.267V35.4561H53.0414V28.4071C52.9947 26.5396 52.0529 25.606 50.2172 25.606C49.3612 25.606 48.6452 25.9526 48.0698 26.6449C47.494 27.3375 47.2061 28.1661 47.2061 29.1306V35.4561H45.0586V24.019Z" fill="white" fill-opacity="0.4"/>
<path d="M59.4131 28.3603H65.9722C65.9099 27.5668 65.587 26.9096 65.0036 26.3881C64.4199 25.8669 63.6381 25.6061 62.6577 25.6061C61.8485 25.6061 61.1521 25.8553 60.5685 26.3531C59.9853 26.8513 59.6002 27.5202 59.4131 28.3603ZM62.8445 35.8295C61.164 35.8295 59.7787 35.2541 58.6897 34.1023C57.6004 32.9509 57.0557 31.4962 57.0557 29.7376C57.0557 27.9949 57.5846 26.5439 58.6429 25.3844C59.701 24.2253 61.0548 23.6455 62.7044 23.6455C64.4003 23.6455 65.7504 24.1941 66.7539 25.2911C67.7577 26.3881 68.2596 27.9251 68.2596 29.9008L68.2362 30.1344H59.2498C59.2809 31.2548 59.6544 32.1573 60.3703 32.8419C61.0858 33.527 61.9417 33.8691 62.9378 33.8691C64.3069 33.8691 65.3806 33.1844 66.1589 31.8148L68.0727 32.7486C67.5593 33.7136 66.8475 34.4681 65.9371 35.0126C65.0268 35.5572 63.9957 35.8295 62.8445 35.8295Z" fill="white" fill-opacity="0.4"/>
<path d="M72.3672 35.4563H70.2197V24.0192H72.2739V25.8864H72.3672C72.585 25.2795 73.0323 24.7625 73.7091 24.3343C74.3861 23.9064 75.0513 23.6924 75.705 23.6924C76.3272 23.6924 76.8563 23.7859 77.2921 23.9724L76.6385 26.0499C76.3738 25.9412 75.9536 25.8864 75.3782 25.8864C74.5689 25.8864 73.8646 26.2132 73.2658 26.8667C72.6664 27.5204 72.3672 28.2828 72.3672 29.1541V35.4563Z" fill="white" fill-opacity="0.4"/>
<path d="M8.44748 8.9784V10.4363H11.9361C11.8233 11.3563 11.4413 12.0722 10.7907 12.5842C10.1569 13.0876 9.37596 13.3392 8.44748 13.3392C7.37134 13.3392 6.46436 12.9617 5.72682 12.2066C4.98915 11.4604 4.62044 10.5449 4.62044 9.45997C4.62044 8.37536 4.98915 7.45978 5.72682 6.71337C6.46436 5.95837 7.37134 5.5808 8.44748 5.5808C9.45403 5.5808 10.3306 5.92813 11.077 6.62227L12.1054 5.59383C11.0725 4.61335 9.85336 4.12305 8.44748 4.12305C7.49281 4.12305 6.59026 4.36598 5.73985 4.85186C4.89792 5.32926 4.23414 5.9843 3.74839 6.81764C3.27086 7.63325 3.03223 8.51416 3.03223 9.45997C3.03223 10.4148 3.27086 11.2999 3.74839 12.1156C4.22554 12.9401 4.88944 13.591 5.73985 14.0681C6.59026 14.5542 7.49281 14.7972 8.44748 14.7972C9.88803 14.7972 11.0812 14.346 12.0273 13.4434C12.9645 12.5495 13.433 11.365 13.433 9.88954C13.433 9.5426 13.4071 9.23867 13.3551 8.9784H8.44748Z" fill="white" fill-opacity="0.4"/>
<path d="M18.7704 12.8442C18.3972 13.2436 17.9417 13.4432 17.4037 13.4432C16.8568 13.4432 16.3969 13.2436 16.0237 12.8442C15.6506 12.4453 15.4639 11.9507 15.4639 11.3603C15.4639 10.7531 15.6506 10.2583 16.0237 9.87632C16.3969 9.47737 16.8568 9.27758 17.4037 9.27758C17.9504 9.27758 18.4102 9.47737 18.7835 9.87632C19.1565 10.2583 19.3432 10.7531 19.3432 11.3603C19.3432 11.9418 19.1523 12.4366 18.7704 12.8442ZM17.4037 7.92383C16.4229 7.92383 15.6027 8.2537 14.9433 8.91304C14.2838 9.56392 13.9541 10.3798 13.9541 11.3603C13.9541 12.3236 14.288 13.1394 14.9563 13.8076C15.6158 14.4672 16.4317 14.797 17.4037 14.797C18.3754 14.797 19.1913 14.4672 19.8509 13.8076C20.519 13.1394 20.8531 12.3236 20.8531 11.3603C20.8531 10.3798 20.519 9.56392 19.8509 8.91304C19.1913 8.2537 18.3754 7.92383 17.4037 7.92383Z" fill="white" fill-opacity="0.4"/>
<path d="M36.6299 14.5888H38.1399V4.4873H36.6299V14.5888Z" fill="white" fill-opacity="0.4"/>
<path d="M26.2937 12.8442C25.9206 13.2436 25.465 13.4432 24.927 13.4432C24.3802 13.4432 23.9201 13.2436 23.5471 12.8442C23.174 12.4453 22.9875 11.9507 22.9875 11.3603C22.9875 10.7531 23.174 10.2583 23.5471 9.87632C23.9201 9.47737 24.3802 9.27758 24.927 9.27758C25.4737 9.27758 25.9336 9.47737 26.3068 9.87632C26.6799 10.2583 26.8667 10.7531 26.8667 11.3603C26.8667 11.9418 26.6756 12.4366 26.2937 12.8442ZM24.927 7.92383C23.9463 7.92383 23.126 8.2537 22.4668 8.91304C21.8071 9.56392 21.4775 10.3798 21.4775 11.3603C21.4775 12.3236 21.8114 13.1394 22.4797 13.8076C23.1392 14.4672 23.9549 14.797 24.927 14.797C25.8988 14.797 26.7147 14.4672 27.3742 13.8076C28.0425 13.1394 28.3767 12.3236 28.3767 11.3603C28.3767 10.3798 28.0425 9.56392 27.3742 8.91304C26.7147 8.2537 25.8988 7.92383 24.927 7.92383Z" fill="white" fill-opacity="0.4"/>
<path d="M40.8869 9.82432C41.2685 9.44258 41.6939 9.25164 42.1626 9.25164C42.4575 9.25164 42.7223 9.31889 42.9567 9.45339C43.1907 9.5879 43.3514 9.76371 43.4382 9.98045L40.3661 11.2561C40.3487 10.6749 40.5225 10.1975 40.8869 9.82432ZM42.2797 13.4432C41.5247 13.4432 40.9693 13.096 40.6135 12.4018L45.2085 10.5013L45.0524 10.1107C44.9308 9.78965 44.7724 9.49458 44.5772 9.22545C44.3821 8.9567 44.1585 8.72432 43.907 8.52921C43.655 8.33385 43.3774 8.18423 43.0737 8.07996C42.7699 7.97583 42.4489 7.92383 42.1103 7.92383C41.1906 7.92383 40.4182 8.24927 39.7934 8.90014C39.1771 9.55975 38.8691 10.3798 38.8691 11.3603C38.8691 12.3324 39.1945 13.1482 39.8454 13.8076C40.4963 14.4672 41.3077 14.797 42.2797 14.797C43.4947 14.797 44.4491 14.2892 45.1435 13.2738L43.972 12.493C43.5466 13.1265 42.9827 13.4432 42.2797 13.4432Z" fill="white" fill-opacity="0.4"/>
<path d="M33.7273 12.8574C33.3714 13.2479 32.9376 13.4433 32.4257 13.4433C31.8874 13.4433 31.4319 13.2436 31.0589 12.8443C30.6944 12.4453 30.512 11.9549 30.512 11.3733C30.512 10.7835 30.6985 10.2887 31.0719 9.88936C31.4537 9.48155 31.905 9.27758 32.4257 9.27758C32.9462 9.27758 33.3801 9.47738 33.7273 9.87632C34.0831 10.2846 34.261 10.7835 34.261 11.3733C34.261 11.9549 34.0831 12.4496 33.7273 12.8574ZM34.1569 8.69162H34.1049C33.6707 8.17981 33.0678 7.92383 32.2955 7.92383C31.4103 7.92383 30.6378 8.26218 29.9784 8.93912C29.3276 9.61592 29.002 10.4277 29.002 11.3733C29.002 12.3106 29.3276 13.1177 29.9784 13.7945C30.6465 14.4628 31.4189 14.797 32.2955 14.797C33.0678 14.797 33.6707 14.5366 34.1049 14.0159H34.1569V14.3673C34.1569 15.8079 33.5452 16.5282 32.3215 16.5282C31.9309 16.5282 31.5839 16.4153 31.2801 16.1899C30.9764 15.964 30.7464 15.6691 30.5901 15.3045L29.2753 15.8513C29.4055 16.1551 29.5704 16.4306 29.77 16.6779C29.9697 16.9253 30.2016 17.1379 30.4665 17.3159C30.7311 17.4937 31.0198 17.6324 31.3322 17.7323C31.6446 17.8319 31.9743 17.8819 32.3215 17.8819C33.3453 17.8819 34.1458 17.5716 34.7231 16.9514C35.3003 16.3307 35.5888 15.4478 35.5888 14.3023V8.13197H34.1569V8.69162Z" fill="white" fill-opacity="0.4"/>
</g>
<mask id="mask1_8592_1494" style="mask-type:luminance" maskUnits="userSpaceOnUse" x="130" y="4" width="109" height="32">
<path d="M238.8 4H130V36H238.8V4Z" fill="white"/>
</mask>
<g mask="url(#mask1_8592_1494)">
<path d="M131.472 4H160.778C161.435 4.3504 162.07 4.9376 162.032 5.7488C162.05 15.1952 162.035 24.6432 162.04 34.0896C162.117 34.9488 161.51 35.6608 160.766 36H152.099C152.098 31.8656 152.104 27.7328 152.096 23.5984C153.483 23.6064 154.87 23.5904 156.258 23.6032C156.475 21.9968 156.669 20.3872 156.885 18.7792C155.288 18.784 153.693 18.776 152.098 18.7808C152.134 17.4992 152.029 16.2128 152.154 14.936C152.216 14.2 152.781 13.5648 153.512 13.4432C154.677 13.2368 155.869 13.376 157.043 13.3408C157.045 11.8992 157.048 10.456 157.04 9.0144C154.848 8.9056 152.525 8.5072 150.44 9.4016C148.733 10.1136 147.566 11.784 147.264 13.5808C146.984 15.2992 147.163 17.0496 147.117 18.7808C145.726 18.7728 144.336 18.7888 142.947 18.776C142.936 20.384 142.942 21.992 142.942 23.6C144.333 23.5936 145.723 23.6096 147.115 23.5936C147.114 27.7296 147.115 31.864 147.114 36H131.472C130.739 35.8384 130.162 35.2624 130 34.528V5.472C130.162 4.7376 130.738 4.16 131.472 4Z" fill="white" fill-opacity="0.4"/>
<path d="M196.51 5.125C197.005 5.1282 197.499 5.1298 197.994 5.1266C198.002 7.661 197.981 10.1954 198.005 12.7298C198.917 11.5826 199.784 10.4002 200.664 9.2274C201.07 8.485 202.037 8.8898 202.715 8.8034C201.624 10.237 200.507 11.6498 199.41 13.0786C200.562 14.5314 201.717 15.9794 202.85 17.445C202.264 17.4514 201.677 17.4514 201.091 17.4354C200.083 16.077 199.042 14.7426 198.01 13.4018C197.981 14.7506 197.998 16.101 197.995 17.4498C197.499 17.4498 197.005 17.4498 196.51 17.4514C196.51 13.3426 196.509 9.2338 196.51 5.125Z" fill="white" fill-opacity="0.4"/>
<path d="M219.337 5.31587C219.985 5.10947 220.705 5.70627 220.569 6.38787C220.552 7.16227 219.52 7.49667 218.963 7.03747C218.376 6.57667 218.571 5.46147 219.337 5.31587Z" fill="white" fill-opacity="0.4"/>
<path d="M170.336 5.83347C170.827 5.83187 171.32 5.83027 171.813 5.82227C172.875 8.17587 173.87 10.5599 174.96 12.9023C176.045 10.5583 177.042 8.17587 178.106 5.82227C178.598 5.83027 179.091 5.83187 179.584 5.83347C179.576 9.70547 179.581 13.5775 179.582 17.4511C179.12 17.4495 178.659 17.4495 178.198 17.4495C178.176 14.5615 178.253 11.6703 178.157 8.78387C177.234 10.5727 176.555 12.4815 175.662 14.2831C175.318 14.5375 174.763 14.3711 174.339 14.3823C173.99 13.9391 173.854 13.3711 173.606 12.8703C172.981 11.5103 172.453 10.1055 171.757 8.78067C171.653 11.6655 171.734 14.5583 171.714 17.4463C171.254 17.4495 170.797 17.4495 170.338 17.4511C170.339 13.5791 170.344 9.70547 170.336 5.83347Z" fill="white" fill-opacity="0.4"/>
<path d="M213.205 6.66919C213.686 6.60839 214.168 6.54119 214.65 6.47559C214.65 7.24839 214.653 8.01959 214.651 8.79239C215.472 8.79239 216.294 8.79719 217.115 8.79559C217.08 9.19239 217.043 9.59079 217.01 9.98759C216.224 9.98759 215.438 9.99719 214.653 9.98599C214.654 11.7828 214.643 13.578 214.654 15.3748C214.678 15.722 214.669 16.2212 215.074 16.354C215.699 16.5316 216.355 16.3604 216.989 16.298C217.01 16.6676 217.03 17.0372 217.046 17.4084C216.078 17.5844 214.998 17.8372 214.075 17.362C213.418 17.0164 213.176 16.2308 213.19 15.5316C213.182 13.6836 213.192 11.8356 213.187 9.98759C212.685 9.99239 212.184 9.99079 211.683 9.99079C211.678 9.59239 211.68 9.19559 211.68 8.79719C212.182 8.79559 212.685 8.79239 213.189 8.79079C213.187 8.08359 213.186 7.37639 213.205 6.66919Z" fill="white" fill-opacity="0.4"/>
<path d="M182.733 8.98794C184.13 8.68874 185.645 8.37994 187.029 8.89194C187.952 9.23754 188.379 10.2615 188.373 11.1895C188.394 13.2759 188.371 15.3639 188.381 17.4503C187.966 17.4519 187.552 17.4503 187.138 17.4503C187.109 17.2295 187.08 17.0087 187.051 16.7879C186.192 17.2727 185.238 17.6455 184.238 17.6295C183.483 17.6407 182.658 17.4039 182.198 16.7655C181.667 16.0183 181.627 15.0375 181.765 14.1607C181.882 13.4039 182.413 12.7175 183.158 12.4983C184.39 12.1191 185.715 12.3783 186.906 12.7863C186.802 11.9047 187.211 10.6695 186.32 10.0967C185.24 9.69674 184.045 9.98794 182.957 10.2247C182.878 9.81354 182.803 9.40074 182.733 8.98794ZM183.866 13.5559C183.195 13.7751 183.098 14.5815 183.146 15.1831C183.154 15.7079 183.379 16.3287 183.949 16.4567C184.974 16.6727 186.01 16.3096 186.904 15.8264C186.896 15.148 186.898 14.4711 186.901 13.7943C185.914 13.5815 184.869 13.2775 183.866 13.5559Z" fill="white" fill-opacity="0.4"/>
<path d="M192.175 9.76141C192.931 9.15501 193.845 8.78541 194.802 8.64941C194.871 9.10541 194.936 9.56301 194.995 10.0206C194.066 10.2142 193.165 10.523 192.298 10.9086C192.304 13.0894 192.298 15.2702 192.299 17.451C191.805 17.4494 191.312 17.4494 190.819 17.4494C190.821 14.5646 190.819 11.6798 190.819 8.79341C191.226 8.79341 191.634 8.79661 192.042 8.80301C192.085 9.12141 192.13 9.44141 192.175 9.76141Z" fill="white" fill-opacity="0.4"/>
<path d="M204.502 9.86829C205.097 8.95949 206.233 8.57709 207.281 8.62509C208.358 8.59629 209.481 9.10189 210.016 10.0683C210.675 11.1851 210.542 12.5275 210.548 13.7691C208.763 13.7755 206.977 13.7595 205.192 13.7803C205.283 14.6619 205.352 15.7915 206.26 16.2347C207.491 16.7403 208.857 16.3579 210.076 15.9995C210.147 16.3739 210.219 16.7483 210.294 17.1211C208.787 17.6235 207.064 17.9051 205.558 17.2523C204.348 16.6987 203.86 15.3099 203.772 14.0683C203.683 12.6507 203.689 11.0971 204.502 9.86829ZM206.089 10.0059C205.249 10.5787 205.265 11.7051 205.19 12.6091C206.507 12.6107 207.824 12.6043 209.141 12.6139C209.105 11.8043 209.126 10.8891 208.557 10.2427C207.933 9.60109 206.838 9.58509 206.089 10.0059Z" fill="white" fill-opacity="0.4"/>
<path d="M224.267 9.52498C225.186 9.00338 226.21 8.59378 227.285 8.62578C227.917 8.61778 228.595 8.80658 229.013 9.31058C229.456 9.82738 229.536 10.5378 229.528 11.1922C229.523 13.2786 229.526 15.365 229.525 17.4498C229.032 17.4498 228.541 17.4498 228.051 17.4514C228.046 15.3666 228.056 13.2802 228.048 11.1938C228.069 10.7138 227.88 10.117 227.338 10.0274C226.339 9.84498 225.347 10.1922 224.426 10.5378C224.437 12.8418 224.426 15.1474 224.429 17.4514C223.938 17.4498 223.446 17.4498 222.955 17.4498C222.955 14.565 222.952 11.6802 222.957 8.79378C223.354 8.79698 223.752 8.79698 224.15 8.79858C224.187 9.04018 224.227 9.28338 224.267 9.52498Z" fill="white" fill-opacity="0.4"/>
<path d="M232.408 9.29047C233.25 8.61847 234.402 8.55607 235.43 8.68087C236.546 8.85847 237.677 8.78647 238.8 8.79287V9.78806C238.438 9.87606 238.074 9.94487 237.71 10.0153C238.098 11.1481 238.152 12.5769 237.235 13.4777C236.309 14.4249 234.883 14.4009 233.659 14.3049C233.597 14.7065 233.229 15.3849 233.773 15.5785C235.032 15.9033 236.459 15.3417 237.637 16.0393C238.813 16.7321 238.974 18.4921 238.163 19.5241C237.477 20.3849 236.326 20.6777 235.275 20.7545C234.221 20.8025 233.09 20.7881 232.146 20.2521C231.27 19.7625 230.979 18.5737 231.347 17.6777C231.557 17.1865 232.027 16.8953 232.448 16.6041C232.211 16.1785 231.938 15.7193 232.032 15.2105C232.096 14.6841 232.531 14.3321 232.875 13.9737C232.354 13.5625 231.826 13.0841 231.659 12.4153C231.379 11.3529 231.512 10.0313 232.408 9.29047ZM233.893 9.79127C233.373 9.93207 233.029 10.4249 232.96 10.9417C232.87 11.5769 232.886 12.3177 233.344 12.8185C233.83 13.3241 234.606 13.3369 235.258 13.2537C235.904 13.1673 236.459 12.6457 236.547 11.9945C236.656 11.3097 236.603 10.4617 236 10.0121C235.392 9.59286 234.579 9.61847 233.893 9.79127ZM233.19 16.9081C232.802 17.3993 232.418 18.0089 232.605 18.6633C232.739 19.3033 233.422 19.5849 234.008 19.6521C234.816 19.7273 235.68 19.7465 236.437 19.4025C237.189 19.0777 237.416 18.0201 236.947 17.3753C236.674 17.0185 236.19 16.9593 235.773 16.9561C234.912 16.9465 234.05 16.9753 233.19 16.9081Z" fill="white" fill-opacity="0.4"/>
<path d="M218.854 8.79688C219.35 8.80007 219.848 8.80007 220.344 8.79688C220.338 11.6801 220.338 14.5633 220.344 17.4465C219.848 17.4481 219.352 17.4481 218.856 17.4465C218.862 14.5633 218.862 11.6801 218.854 8.79688Z" fill="white" fill-opacity="0.4"/>
<path d="M170.336 23.2824C171.718 23.3016 173.102 23.2328 174.482 23.3192C175.618 23.3912 176.766 24.0376 177.179 25.1384C177.614 26.2872 177.611 27.6168 177.17 28.7608C176.762 29.7928 175.702 30.42 174.63 30.5288C173.707 30.628 172.778 30.5848 171.851 30.5864C171.853 32.0248 171.845 33.4648 171.853 34.9048C171.347 34.908 170.843 34.9096 170.338 34.9144C170.339 31.036 170.342 27.1592 170.336 23.2824ZM171.851 24.508C171.85 26.1208 171.85 27.7352 171.851 29.348C172.674 29.3352 173.499 29.3944 174.32 29.3112C174.923 29.2472 175.515 28.8872 175.746 28.308C176.05 27.5672 176.029 26.7272 175.882 25.9528C175.754 25.2856 175.221 24.7224 174.546 24.5976C173.658 24.4328 172.749 24.5416 171.851 24.508Z" fill="white" fill-opacity="0.4"/>
<path d="M193.597 24.138C194.09 24.0708 194.581 24.0004 195.074 23.9268C195.066 24.6996 195.074 25.4724 195.071 26.2452C195.891 26.2436 196.714 26.2484 197.536 26.2484C197.493 26.6468 197.458 27.0468 197.415 27.4452C196.634 27.4356 195.855 27.4452 195.075 27.4356C195.071 29.226 195.064 31.018 195.072 32.81C195.087 33.1732 195.087 33.6996 195.522 33.8196C196.135 33.9796 196.771 33.8196 197.384 33.7364C197.424 34.1076 197.459 34.4804 197.496 34.8532C196.525 35.0372 195.451 35.282 194.519 34.8324C193.835 34.49 193.589 33.6788 193.6 32.9636C193.597 31.1236 193.599 29.282 193.603 27.4404C193.096 27.442 192.591 27.4404 192.085 27.4372C192.085 27.0404 192.087 26.6436 192.087 26.2484C192.591 26.2468 193.095 26.2452 193.599 26.2452C193.602 25.5428 193.6 24.8404 193.597 24.138Z" fill="white" fill-opacity="0.4"/>
<path d="M179.244 26.4513C180.626 26.1345 182.13 25.8353 183.506 26.3345C184.437 26.6721 184.892 27.6913 184.879 28.6305C184.896 30.7217 184.882 32.8161 184.884 34.9089C184.466 34.9073 184.05 34.9089 183.634 34.9089C183.612 34.6833 183.589 34.4577 183.567 34.2337C182.525 34.8369 181.303 35.2449 180.09 35.0257C179.38 34.9169 178.716 34.4545 178.452 33.7729C178.151 33.0161 178.135 32.1553 178.33 31.3697C178.5 30.6689 179.071 30.1009 179.768 29.9217C180.976 29.5889 182.255 29.8465 183.418 30.2385C183.316 29.3505 183.722 28.0753 182.784 27.5297C181.706 27.1553 180.53 27.4433 179.45 27.6833C179.383 27.2721 179.309 26.8625 179.244 26.4513ZM179.836 31.4497C179.608 31.8993 179.624 32.4305 179.685 32.9201C179.735 33.3489 179.984 33.7953 180.432 33.9041C181.464 34.1377 182.516 33.7697 183.413 33.2737C183.407 32.5953 183.41 31.9169 183.405 31.2401C182.581 31.0609 181.746 30.8577 180.896 30.9089C180.493 30.9329 180.04 31.0705 179.836 31.4497Z" fill="white" fill-opacity="0.4"/>
<path d="M200.59 26.9793C201.508 26.4593 202.531 26.0577 203.603 26.0737C204.267 26.0705 204.992 26.2849 205.4 26.8433C205.755 27.3041 205.848 27.9025 205.846 28.4689C205.844 30.6161 205.846 32.7617 205.844 34.9089C205.358 34.9089 204.873 34.9089 204.388 34.9089C204.385 32.8673 204.395 30.8257 204.385 28.7825C204.39 28.2945 204.296 27.6465 203.734 27.5041C202.718 27.2753 201.686 27.6321 200.747 27.9969C200.755 30.3009 200.747 32.6065 200.748 34.9105C200.257 34.9089 199.766 34.9089 199.275 34.9089C199.276 32.0193 199.265 29.1313 199.281 26.2433C199.678 26.2465 200.075 26.2465 200.473 26.2433C200.513 26.4881 200.552 26.7329 200.59 26.9793Z" fill="white" fill-opacity="0.4"/>
<path d="M208.552 27.3559C209.16 26.3991 210.352 26.0184 211.438 26.076C212.505 26.076 213.598 26.6023 214.11 27.5671C214.749 28.6807 214.608 30.0023 214.621 31.2311C212.838 31.2279 211.056 31.2344 209.272 31.228C209.344 32.1256 209.432 33.2855 210.374 33.7095C211.597 34.1799 212.942 33.8135 214.144 33.4455C214.214 33.8247 214.289 34.2023 214.365 34.5815C212.837 35.0791 211.078 35.3799 209.568 34.6759C208.389 34.0983 207.934 32.7272 207.841 31.5032C207.75 30.1032 207.768 28.5767 208.552 27.3559ZM210.037 27.5527C209.315 28.1687 209.329 29.2055 209.269 30.0743C210.584 30.0759 211.899 30.0743 213.216 30.0743C213.184 29.1847 213.192 28.0999 212.408 27.5047C211.717 27.0519 210.707 27.0631 210.037 27.5527Z" fill="white" fill-opacity="0.4"/>
<path d="M221.928 27.4269C222.201 26.6589 222.998 26.2365 223.769 26.1373C224.849 25.9725 225.957 26.1293 226.989 26.4653C226.923 26.8685 226.856 27.2717 226.784 27.6749C225.873 27.3901 224.901 27.1405 223.945 27.3437C222.941 27.5245 222.909 29.2189 223.851 29.5197C224.926 29.9725 226.235 30.0253 227.073 30.9277C228.056 32.0781 227.681 34.2045 226.209 34.7693C224.768 35.3421 223.133 35.0781 221.72 34.5405C221.813 34.1485 221.905 33.7565 222.003 33.3661C223.067 33.7677 224.246 34.0685 225.376 33.7693C226.333 33.5341 226.448 32.0413 225.624 31.5757C224.643 31.0381 223.417 31.0749 222.517 30.3645C221.637 29.6909 221.598 28.3981 221.928 27.4269Z" fill="white" fill-opacity="0.4"/>
<path d="M187.318 26.2472C187.723 26.2472 188.129 26.2456 188.536 26.2456C188.585 26.5656 188.64 26.8872 188.694 27.2088C189.446 26.5992 190.36 26.236 191.315 26.1016C191.376 26.5624 191.44 27.0232 191.5 27.484C190.572 27.6664 189.676 27.9784 188.809 28.356C188.79 30.5384 188.8 32.7208 188.804 34.9032C188.307 34.9064 187.812 34.908 187.316 34.9144C187.323 32.0248 187.32 29.1368 187.318 26.2472Z" fill="white" fill-opacity="0.4"/>
<path d="M216.682 26.2439C217.088 26.2471 217.496 26.2471 217.906 26.2519C217.944 26.5703 217.984 26.8887 218.024 27.2071C218.79 26.6183 219.694 26.2423 220.651 26.0967C220.723 26.5527 220.792 27.0103 220.872 27.4647C219.944 27.6711 219.042 27.9735 218.17 28.3527C218.138 30.5383 218.16 32.7239 218.155 34.9111C217.664 34.9095 217.173 34.9095 216.682 34.9111C216.678 32.0215 216.68 29.1335 216.682 26.2439Z" fill="white" fill-opacity="0.4"/>
<path d="M150.44 9.40184C152.525 8.50744 154.848 8.90584 157.04 9.01464C157.048 10.4562 157.045 11.8994 157.043 13.341C155.869 13.3762 154.677 13.237 153.512 13.4434C152.781 13.565 152.216 14.2002 152.153 14.9362C152.029 16.213 152.134 17.4994 152.097 18.781C153.693 18.7762 155.288 18.7842 156.885 18.7794C156.669 20.3874 156.475 21.997 156.257 23.6034C154.87 23.5906 153.483 23.6066 152.096 23.5986C152.104 27.733 152.097 31.8658 152.099 36.0002H147.113C147.115 31.8642 147.113 27.7298 147.115 23.5938C145.723 23.6098 144.333 23.5938 142.942 23.6002C142.942 21.9922 142.936 20.3842 142.947 18.7762C144.336 18.789 145.726 18.773 147.117 18.781C147.163 17.0498 146.984 15.2994 147.264 13.581C147.566 11.7842 148.733 10.1138 150.44 9.40184Z" fill="#131623"/>
</g>
</svg>
