<svg width="50" height="50" viewBox="0 0 50 50" fill="none" xmlns="http://www.w3.org/2000/svg">
<circle opacity="0.5" cx="25" cy="25" r="25" fill="#FFBB1B"/>
<path fill-rule="evenodd" clip-rule="evenodd" d="M17.7881 37.0276C17.8838 36.3091 18.6208 35.1065 18.0137 34.6995C15.4568 32.9855 12.5543 30.7227 12.6912 27.334C12.7464 25.9604 13.1519 24.2613 14.138 23.2376C14.8055 22.5451 16.0479 22.4155 16.6934 23.2484C17.3757 24.1295 16.8077 25.5464 16.7414 26.5312C16.6922 27.2663 16.9092 27.9046 17.7344 28.0089C17.9845 28.0406 18.2415 28.0318 18.4917 28.0028C18.8371 27.9629 19.1671 27.8644 19.4651 27.6855C20.4568 27.0897 20.9921 25.4899 21.0212 24.4035C21.0395 23.7125 20.7881 23.0027 20.0679 22.7879C18.9489 22.4544 17.8316 23.8273 16.7698 23.203C16.5942 23.0996 16.4339 22.9677 16.3131 22.804C15.4879 21.6856 16.4535 20.5058 17.3797 19.8463C18.2684 19.2133 19.4254 18.643 20.5404 18.6068C23.031 18.5265 24.5102 21.0182 24.841 23.1602C25.0204 21.0761 24.3057 18.9866 24.1525 16.9191C24.0852 16.0083 23.9883 14.9669 24.4444 14.1292C24.8423 13.3991 25.6464 13.2077 26.3394 13.7236C27.0545 14.2557 27.4986 15.1607 27.8061 15.9659C28.7224 18.3652 28.8405 20.9754 28.2801 23.4507C28.9967 21.761 29.6913 20.0574 30.3901 18.3603C30.7141 17.5741 30.9734 16.6317 31.5169 16.1697C32.27 15.529 33.2394 15.7527 33.7425 16.5938C34.1798 17.3249 34.2074 18.1874 34.117 19.0117C33.9357 20.6672 33.2075 22.2476 32.4252 23.7009C31.5559 25.3165 30.6315 26.9361 29.371 28.2824C30.4403 27.4252 31.4582 26.5528 32.4416 25.5992C33.373 24.6959 34.4767 22.9718 35.8309 22.6306C36.8274 22.3797 37.2908 23.2089 37.3127 24.1278C37.3406 25.2935 36.5455 26.3965 35.8156 27.2451C34.3368 28.9645 32.583 30.4492 30.6832 31.6983C30.043 32.1195 29.3846 32.5139 28.7106 32.8806C28.415 33.0414 27.8908 33.1918 27.6629 33.4317C27.4017 33.7067 27.3005 34.2309 27.1874 34.5761C26.8948 35.4682 26.6024 36.3883 26.4353 37.3132" fill="white"/>
<path d="M17.7881 37.0276C17.8838 36.3091 18.6208 35.1065 18.0137 34.6995C15.4568 32.9855 12.5543 30.7227 12.6912 27.334C12.7464 25.9604 13.1519 24.2613 14.138 23.2376C14.8055 22.5451 16.0479 22.4155 16.6934 23.2484C17.3757 24.1295 16.8077 25.5464 16.7414 26.5312C16.6922 27.2663 16.9092 27.9046 17.7344 28.0089C17.9845 28.0406 18.2415 28.0318 18.4917 28.0028C18.8371 27.9629 19.1671 27.8644 19.4651 27.6855C20.4568 27.0897 20.9921 25.4899 21.0212 24.4035C21.0395 23.7125 20.7881 23.0027 20.0679 22.7879C18.9489 22.4544 17.8316 23.8273 16.7698 23.203C16.5942 23.0996 16.4339 22.9677 16.3131 22.804C15.4879 21.6856 16.4535 20.5058 17.3797 19.8463C18.2684 19.2133 19.4254 18.643 20.5404 18.6068C23.031 18.5265 24.5102 21.0182 24.841 23.1603C25.0204 21.0761 24.3057 18.9866 24.1525 16.9191C24.0852 16.0083 23.9883 14.9669 24.4444 14.1292C24.8423 13.3991 25.6464 13.2077 26.3394 13.7236C27.0545 14.2557 27.4986 15.1607 27.8061 15.9659C28.7224 18.3652 28.8405 20.9754 28.2801 23.4507C28.9967 21.761 29.6913 20.0574 30.3901 18.3603C30.7141 17.5741 30.9734 16.6317 31.5169 16.1697C32.27 15.529 33.2394 15.7527 33.7425 16.5938C34.1798 17.3249 34.2074 18.1874 34.117 19.0117C33.9357 20.6672 33.2075 22.2476 32.4252 23.7009C31.5559 25.3165 30.6315 26.9361 29.371 28.2824C30.4403 27.4252 31.4582 26.5528 32.4416 25.5992C33.373 24.6959 34.4767 22.9718 35.8309 22.6306C36.8274 22.3797 37.2908 23.2089 37.3127 24.1278C37.3406 25.2935 36.5455 26.3965 35.8156 27.2451C34.3368 28.9645 32.583 30.4492 30.6832 31.6983C30.043 32.1195 29.3846 32.5139 28.7106 32.8806C28.415 33.0414 27.8908 33.1918 27.6629 33.4317C27.4017 33.7067 27.3005 34.2309 27.1874 34.5761C26.8948 35.4682 26.6024 36.3883 26.4353 37.3132" stroke="#1D1B2D" stroke-width="2.5" stroke-miterlimit="1.5" stroke-linecap="round" stroke-linejoin="round"/>
</svg>
