<svg width="32" height="32" viewBox="0 0 32 32" fill="none" xmlns="http://www.w3.org/2000/svg">
<path d="M29.1252 6.9443C29.5993 4.63329 29.5942 2.59658 29.5541 1.63731C29.5488 1.47427 29.4817 1.31934 29.3665 1.20393C29.2512 1.08852 29.0963 1.02126 28.9333 1.01579C27.1536 0.94924 25.3722 1.09322 23.6263 1.44473C23.0887 1.55488 22.9107 2.21287 23.2981 2.60023L27.9697 7.27183C28.3585 7.65992 29.015 7.48119 29.1252 6.9443Z" fill="white"/>
<path d="M2.61872 30.97C1.81337 30.9437 1.19623 30.4564 1.11453 29.6547C1.0496 29.0266 1 28.0929 1 26.7134C1 25.334 1.05106 24.3995 1.11453 23.7714C1.19696 22.9697 1.8141 22.4832 2.61945 22.4555C3.09507 22.4394 3.73337 22.4277 4.57082 22.4277C5.40826 22.4277 6.04656 22.4401 6.52291 22.4562C7.32826 22.4824 7.9454 22.9697 8.02711 23.7714C8.0913 24.4003 8.14236 25.3333 8.14236 26.7134C8.14236 28.0936 8.0913 29.0274 8.02784 29.6554C7.9454 30.4571 7.32826 30.9437 6.52291 30.9714C6.04583 30.9875 5.40826 30.9992 4.57082 30.9992C3.73337 30.9992 3.09507 30.986 2.61872 30.97Z" fill="#FFBB1B"/>
<path d="M25.6821 30.9522C24.7535 30.8953 24.1086 30.2249 24.0415 29.297C23.9496 28.0394 23.8555 25.7612 23.8555 21.7133C23.8555 17.6647 23.9496 15.388 24.0415 14.1296C24.1086 13.2017 24.7535 12.5313 25.6821 12.4744C26.1315 12.4474 26.7056 12.4277 27.427 12.4277C28.1485 12.4277 28.7218 12.4467 29.1719 12.4752C30.1006 12.5321 30.7454 13.2024 30.8125 14.1303C30.9037 15.388 30.9986 17.6661 30.9986 21.714C30.9986 25.7627 30.9045 28.0394 30.8125 29.2977C30.7454 30.2257 30.1006 30.896 29.1719 30.9529C28.7218 30.9807 28.1492 31.0004 27.427 31.0004C26.7056 31.0004 26.1322 30.9807 25.6821 30.9522Z" fill="#FFBB1B"/>
<path d="M14.2116 30.9648C13.3085 30.9254 12.6497 30.3222 12.5739 29.422C12.4958 28.4955 12.4258 26.9892 12.4258 24.5709C12.4258 22.1527 12.4958 20.6463 12.5739 19.7199C12.6497 18.8197 13.3092 18.2164 14.2108 18.177C14.806 18.1526 15.4016 18.1412 15.9973 18.1427C16.7414 18.1427 17.3272 18.1573 17.7831 18.177C18.6862 18.2164 19.3449 18.8197 19.4208 19.7199C19.4988 20.647 19.5689 22.1527 19.5689 24.5709C19.5689 26.9892 19.4988 28.4955 19.4208 29.422C19.3449 30.3222 18.6855 30.9254 17.7838 30.9648C17.3272 30.9845 16.7414 30.9991 15.9973 30.9991C15.4019 31.0007 14.8065 30.9892 14.2116 30.9648Z" fill="#FFBB1B"/>
<path d="M2.42969 17.4274C6.61546 12.4567 10.4183 9.59423 12.153 8.41904C12.7198 8.03387 13.4682 8.16007 13.8986 8.69259C14.7167 9.71178 15.5051 10.7544 16.2629 11.8192C16.8399 12.6274 18.0581 12.6537 18.6971 11.8936C21.6516 8.38475 25.6447 4.92773 25.6447 4.92773" stroke="#1D1B2D" stroke-width="2" stroke-linecap="round" stroke-linejoin="round"/>
<path d="M29.1255 6.94432C29.5997 4.63331 29.5946 2.5966 29.5537 1.63733C29.5485 1.47441 29.4815 1.31959 29.3664 1.20419C29.2512 1.0888 29.0966 1.02146 28.9337 1.01581C27.1537 0.949209 25.3721 1.09319 23.6259 1.44475C23.089 1.5549 22.9103 2.21289 23.2984 2.60025L27.97 7.27185C28.3581 7.65994 29.0154 7.48121 29.1255 6.94432Z" stroke="#1D1B2D" stroke-width="2" stroke-linecap="round" stroke-linejoin="round"/>
<path d="M2.61872 30.97C1.81337 30.9437 1.19623 30.4564 1.11453 29.6547C1.0496 29.0266 1 28.0929 1 26.7134C1 25.334 1.05106 24.3995 1.11453 23.7714C1.19696 22.9697 1.8141 22.4832 2.61945 22.4555C3.09507 22.4394 3.73337 22.4277 4.57082 22.4277C5.40826 22.4277 6.04656 22.4401 6.52291 22.4562C7.32826 22.4824 7.9454 22.9697 8.02711 23.7714C8.0913 24.4003 8.14236 25.3333 8.14236 26.7134C8.14236 28.0936 8.0913 29.0274 8.02784 29.6554C7.9454 30.4571 7.32826 30.9437 6.52291 30.9714C6.04583 30.9875 5.40826 30.9992 4.57082 30.9992C3.73337 30.9992 3.09507 30.986 2.61872 30.97Z" stroke="#1D1B2D" stroke-width="2" stroke-linecap="round" stroke-linejoin="round"/>
<path d="M25.6821 30.9522C24.7535 30.8953 24.1086 30.2249 24.0415 29.297C23.9496 28.0394 23.8555 25.7612 23.8555 21.7133C23.8555 17.6647 23.9496 15.388 24.0415 14.1296C24.1086 13.2017 24.7535 12.5313 25.6821 12.4744C26.1315 12.4474 26.7056 12.4277 27.427 12.4277C28.1485 12.4277 28.7218 12.4467 29.1719 12.4752C30.1006 12.5321 30.7454 13.2024 30.8125 14.1303C30.9037 15.388 30.9986 17.6661 30.9986 21.714C30.9986 25.7627 30.9045 28.0394 30.8125 29.2977C30.7454 30.2257 30.1006 30.896 29.1719 30.9529C28.7218 30.9807 28.1492 31.0004 27.427 31.0004C26.7056 31.0004 26.1322 30.9807 25.6821 30.9522Z" stroke="#1D1B2D" stroke-width="2" stroke-linecap="round" stroke-linejoin="round"/>
<path d="M14.2116 30.9648C13.3085 30.9254 12.6497 30.3222 12.5739 29.422C12.4958 28.4955 12.4258 26.9892 12.4258 24.5709C12.4258 22.1527 12.4958 20.6463 12.5739 19.7199C12.6497 18.8197 13.3092 18.2164 14.2108 18.177C14.806 18.1526 15.4016 18.1412 15.9973 18.1427C16.7414 18.1427 17.3272 18.1573 17.7831 18.177C18.6862 18.2164 19.3449 18.8197 19.4208 19.7199C19.4988 20.647 19.5689 22.1527 19.5689 24.5709C19.5689 26.9892 19.4988 28.4955 19.4208 29.422C19.3449 30.3222 18.6855 30.9254 17.7838 30.9648C17.3272 30.9845 16.7414 30.9991 15.9973 30.9991C15.4019 31.0007 14.8065 30.9892 14.2116 30.9648Z" stroke="#1D1B2D" stroke-width="2" stroke-linecap="round" stroke-linejoin="round"/>
</svg>
