<svg width="32" height="32" viewBox="0 0 32 32" fill="none" xmlns="http://www.w3.org/2000/svg">
<path d="M16.1047 30.9993C24.3885 30.9993 31.1047 24.2838 31.1047 15.9993C31.1047 7.71473 24.3885 1 16.1047 1C7.82093 1 1.10547 7.71546 1.10547 15.9993C1.10547 24.2831 7.8202 30.9993 16.1047 30.9993Z" fill="#E73881"/>
<path d="M14.8349 7.72985C15.3674 6.70203 16.838 6.70203 17.3705 7.72985L19.378 11.5997L23.6344 12.4385C24.722 12.653 25.1612 13.9704 24.42 14.7955L21.4022 18.151L21.9566 22.6423C22.0967 23.7737 20.9208 24.6046 19.901 24.0961L16.1027 22.1988L12.3051 24.0954C11.2853 24.6038 10.1094 23.773 10.2487 22.6416L10.8031 18.1503L7.78531 14.794C7.04418 13.9697 7.48405 12.6508 8.57168 12.4371L12.8281 11.5989L14.8349 7.72985Z" fill="white"/>
<path d="M16.1046 1.00036C14.126 0.986567 12.1643 1.36436 10.3323 2.11197C8.50036 2.85959 6.83442 3.96226 5.43045 5.35648C4.02647 6.7507 2.91221 8.4089 2.15184 10.2356C1.39146 12.0623 1 14.0214 1 16C1 17.9786 1.39146 19.9377 2.15184 21.7644C2.91221 23.5911 4.02647 25.2493 5.43045 26.6435C6.83442 28.0377 8.50036 29.1404 10.3323 29.888C12.1643 30.6356 14.126 31.0134 16.1046 30.9996C18.0832 31.0134 20.0449 30.6356 21.8769 29.888C23.7089 29.1404 25.3748 28.0377 26.7788 26.6435C28.1827 25.2493 29.297 23.5911 30.0574 21.7644C30.8177 19.9377 31.2092 17.9786 31.2092 16C31.2092 14.0214 30.8177 12.0623 30.0574 10.2356C29.297 8.4089 28.1827 6.7507 26.7788 5.35648C25.3748 3.96226 23.7089 2.85959 21.8769 2.11197C20.0449 1.36436 18.0832 0.986567 16.1046 1.00036Z" stroke="#1D1B2D" stroke-linecap="round" stroke-linejoin="round"/>
<path d="M14.8342 7.72985C15.3674 6.70203 16.838 6.70203 17.3705 7.72985L19.3773 11.5997L23.6344 12.4385C24.7213 12.653 25.1612 13.9704 24.4201 14.7955L21.4023 18.151L21.9567 22.6423C22.096 23.7737 20.9208 24.6046 19.901 24.0961L16.1027 22.1988L12.3044 24.0954C11.2853 24.6038 10.1094 23.773 10.2487 22.6416L10.8031 18.1503L7.78534 14.794C7.04421 13.9697 7.48407 12.6508 8.57098 12.4371L12.8281 11.5989L14.8349 7.72912L14.8342 7.72985Z" stroke="#1D1B2D" stroke-linecap="round" stroke-linejoin="round"/>
</svg>
