<svg width="30" height="32" viewBox="0 0 30 32" fill="none" xmlns="http://www.w3.org/2000/svg">
<path d="M18.4059 1.0569C19.0464 1.25678 21.1036 2.07237 24.0756 4.97067C26.8754 7.7012 27.7807 9.64094 28.0463 10.3777C28.1053 11.9783 28.1433 13.8429 28.1433 16C28.1433 21.7609 27.8755 25.4317 27.6312 27.5816C27.4524 29.1544 26.2721 30.3303 24.7 30.5134C22.6895 30.7483 19.4046 31 14.5709 31C9.73723 31 6.45302 30.7483 4.44179 30.5142C2.87044 30.3296 1.68938 29.1544 1.51065 27.5816C1.26773 25.4317 1 21.7601 1 16C1 10.2399 1.26773 6.56828 1.51211 4.41844C1.69084 2.84564 2.87117 1.66968 4.44324 1.48658C6.45375 1.25168 9.73796 1 14.5716 1C15.9788 1 17.2547 1.02116 18.4059 1.0569Z" fill="#6341F0"/>
<path d="M18.4091 1.05857C19.0518 1.25845 21.1083 2.07549 24.0774 4.97088C26.8641 7.68973 27.773 9.62291 28.0437 10.3685L28.0568 10.7201C26.446 10.9586 23.5193 10.766 21.3549 10.5632C20.5793 10.493 19.8526 10.154 19.3005 9.60476C18.7483 9.05556 18.4055 8.33071 18.3311 7.55551C18.1239 5.43776 17.9306 2.60146 18.1808 1.05273L18.4091 1.06003V1.05857Z" fill="white"/>
<path d="M18.4059 1.0569C19.0464 1.25678 21.1036 2.07237 24.0756 4.97067C26.8754 7.7012 27.7807 9.64094 28.0463 10.3777C28.1053 11.9783 28.1433 13.8429 28.1433 16C28.1433 21.7609 27.8755 25.4317 27.6312 27.5816C27.4524 29.1544 26.2721 30.3303 24.7 30.5134C22.6895 30.7483 19.4046 31 14.5709 31C9.73723 31 6.45302 30.7483 4.44179 30.5142C2.87044 30.3296 1.68938 29.1544 1.51065 27.5816C1.26773 25.4317 1 21.7601 1 16C1 10.2399 1.26773 6.56828 1.51211 4.41844C1.69084 2.84564 2.87117 1.66968 4.44324 1.48658C6.45375 1.25168 9.73796 1 14.5716 1C15.9788 1 17.2547 1.02116 18.4059 1.0569Z" stroke="#1D1B2D" stroke-width="2" stroke-linecap="round" stroke-linejoin="round"/>
<path d="M28.0568 10.7181C26.446 10.9567 23.5193 10.7641 21.3549 10.5613C20.5793 10.491 19.8526 10.152 19.3005 9.60281C18.7483 9.05361 18.4055 8.32875 18.3311 7.55355C18.1239 5.43581 17.9306 2.59951 18.1808 1.05078" stroke="#1D1B2D" stroke-width="2" stroke-linecap="round" stroke-linejoin="round"/>
<rect x="10" y="14" width="9" height="9" rx="4.5" fill="white"/>
</svg>
