<svg width="89" height="118" viewBox="0 0 89 118" fill="none" xmlns="http://www.w3.org/2000/svg">
<path d="M50.7891 26.5787C50.7891 26.5787 65.5913 40.632 77.9086 40.4148C77.9086 40.4148 93.044 3.61465 85.0167 1.44558C80.8686 0.32403 50.7891 26.5787 50.7891 26.5787Z" fill="#FFBB1B"/>
<path d="M51.3948 88.6945C46.1288 88.6945 37.7622 85.0745 31.5721 81.0448C27.7645 78.5648 21.3091 73.6653 20.8649 68.7102C19.5669 54.2226 54.8766 17.8888 73.0423 5.22725C81.3287 -0.549537 84.1467 -0.332395 85.5459 0.330172C87.8273 1.41101 88.8045 4.21057 88.533 8.88555C87.3893 28.6243 61.1001 85.8851 53.8464 88.3441C53.1431 88.5835 52.3164 88.6945 51.3948 88.6945ZM83.9999 2.48322C83.0326 2.48322 80.4588 3.06435 74.4526 7.25073C54.4065 21.2226 22.2085 56.0647 23.3227 68.4881C23.5756 71.3062 27.1624 75.2273 32.9182 78.9757C40.505 83.9159 49.7291 87.1399 53.0518 86.006C57.7243 84.4218 84.8426 29.8841 86.0678 8.74119C86.2652 5.33088 85.7051 3.13466 84.4873 2.55847C84.4416 2.53749 84.296 2.48322 83.9999 2.48322Z" fill="#1D1B2D"/>
<path d="M76.5856 41.6819C60.5952 41.6819 50.2409 27.9137 49.7967 27.3115C49.392 26.7637 49.5092 25.9926 50.0558 25.5879C50.6024 25.1807 51.3748 25.2992 51.7807 25.8458C51.8856 25.9864 62.4027 39.9324 77.8478 39.1847C78.503 39.1551 79.1076 39.6745 79.1409 40.3556C79.1754 41.0354 78.651 41.6153 77.97 41.6486C77.5036 41.6708 77.0421 41.6819 76.5856 41.6819Z" fill="#1D1B2D"/>
<path d="M69.6989 103.219C66.544 103.22 39.2776 89.4855 39.0444 89.3362C38.4706 88.9685 38.3029 88.206 38.6705 87.6323C39.037 87.0585 39.8007 86.8895 40.3744 87.2584C42.4103 88.4836 66.5501 100.09 69.4632 100.745C70.5712 100.161 74.4343 94.9378 75.7348 77.336C76.9994 60.208 71.9888 57.2431 71.937 57.2209C71.3115 56.9507 71.024 56.2239 71.2954 55.5984C71.5669 54.9728 72.2936 54.6853 72.9179 54.9568C73.6064 55.2554 79.6053 58.4226 78.195 77.5173C76.7687 96.8329 72.2665 102.755 69.8321 103.209C69.7926 103.216 69.7495 103.219 69.6989 103.219Z" fill="#1D1B2D"/>
<path d="M25.9691 83.8321C25.8198 83.8321 25.6668 83.8037 25.5175 83.7457C25.2954 83.6569 1.3246 69.9774 0.423908 67.7763L0.370855 67.648C-0.684069 65.1667 -0.376852 62.3006 13.6296 50.1165C29.5349 36.2816 35.7201 40.8023 36.3727 41.3612C36.8897 41.8054 36.9489 42.584 36.5048 43.1009C36.068 43.6105 35.3079 43.6759 34.7897 43.2539C34.6404 43.1466 29.3991 39.6697 15.2496 51.9771C1.4813 63.9539 2.32524 65.9354 2.6411 66.6819C4.46593 68.6215 25.1683 80.8845 26.4503 81.4607C27.0635 81.7358 27.3584 82.4564 27.0956 83.0745C26.8982 83.5446 26.4491 83.8321 25.9691 83.8321Z" fill="#1D1B2D"/>
<path d="M36.4296 93.4362C34.4653 93.4362 24.591 88.8858 24.4466 85.9765C24.3467 83.9863 27.5719 79.5223 28.9636 77.695C29.3757 77.1521 30.1494 77.0485 30.6922 77.4606C31.2339 77.8739 31.3388 78.6475 30.9254 79.1892C28.8452 81.9233 27.0636 84.8574 26.9192 85.7655C27.773 87.1782 34.701 90.8563 36.2926 90.9673C37.0539 90.5268 38.7627 87.446 40.0027 84.259C40.2495 83.6236 40.9626 83.3077 41.5993 83.5569C42.2347 83.8037 42.5493 84.5181 42.3026 85.1535C40.8578 88.8723 38.6751 93.3264 36.4838 93.435C36.4678 93.435 36.4493 93.4362 36.4296 93.4362Z" fill="#1D1B2D"/>
<path d="M51.6891 66.6954C43.7692 66.6954 37.1781 61.0395 36.8166 53.76C36.6339 50.0868 38.0417 46.5618 40.7808 43.835C43.4854 41.1428 47.1721 39.55 51.161 39.3525C59.4561 38.9281 66.4889 44.7357 66.8628 52.267C67.2366 59.7996 60.801 66.2624 52.5183 66.6745C52.2406 66.688 51.963 66.6954 51.6891 66.6954ZM51.9902 41.7992C51.7558 41.7992 51.5201 41.8054 51.2832 41.8165C47.905 41.9843 44.7933 43.3218 42.5205 45.5834C40.2836 47.8104 39.1324 50.6705 39.2793 53.6366C39.5865 59.8119 45.4879 64.5547 52.3936 64.2105C59.3191 63.8662 64.7036 58.5633 64.3976 52.3892C64.1027 46.4273 58.6047 41.7992 51.9902 41.7992Z" fill="#1D1B2D"/>
<path d="M52.0613 63.2344C49.2753 63.2344 46.6275 62.3177 44.5448 60.62C42.2672 58.7643 40.9371 56.2016 40.7989 53.4045C40.5151 47.682 45.3887 42.7738 51.664 42.4617C57.9578 42.1532 63.2768 46.5531 63.5606 52.2756C63.8444 57.9981 58.9707 62.9062 52.6955 63.2184C52.4833 63.2295 52.2723 63.2344 52.0613 63.2344ZM52.2895 44.9145C52.1217 44.9145 51.9552 44.9182 51.7861 44.9269C46.8706 45.1712 43.0469 48.9196 43.2629 53.2836C43.3677 55.3725 44.3758 57.2997 46.1031 58.7075C47.8687 60.1462 50.1686 60.8729 52.5721 60.7544C57.4889 60.5101 61.3125 56.7618 61.0954 52.3989C60.8869 48.1842 56.9855 44.9145 52.2895 44.9145Z" fill="#1D1B2D"/>
<path d="M32.9451 117.159C32.8266 117.159 32.7094 117.144 32.5922 117.113C30.8612 116.661 30.8328 114.155 31.1943 106.527C31.2264 105.846 31.2609 105.113 31.2893 104.412C30.9685 104.974 30.644 105.554 30.3528 106.073C27.0634 111.941 25.9789 113.54 24.618 113.607C24.138 113.627 23.6766 113.434 23.3644 113.068C22.6229 112.194 22.8931 110.75 23.5236 107.831C23.7062 106.986 23.9665 105.782 24.0874 104.873C23.8431 105.22 23.5988 105.614 23.4261 105.889C22.7253 107.014 22.1182 107.987 21.1978 108.285C20.6648 108.457 20.1108 108.321 19.7481 107.93C18.9818 107.103 19.4236 106.03 20.6043 103.162C20.84 102.589 21.1534 101.83 21.4137 101.136C20.7968 101.519 20.1096 101.967 19.5223 102.349C15.2853 105.111 13.5666 106.079 12.3216 105.29C12.0576 105.122 11.4567 104.617 11.5999 103.549C12.0033 100.558 21.9887 89.8951 25.04 86.6982C25.5125 86.2047 26.2923 86.1887 26.7846 86.6575C27.2769 87.1288 27.2954 87.9098 26.8253 88.4021C22.0109 93.4473 16.7881 99.4424 14.8337 102.37C15.901 101.766 17.2286 100.9 18.1749 100.283C21.452 98.1469 22.6796 97.3499 23.7235 98.063C24.6821 98.7182 24.5082 99.9014 23.7913 101.839C24.2663 101.623 24.7932 101.573 25.3817 101.788C27.209 102.454 26.6476 105.058 25.9357 108.351C25.8901 108.56 25.8407 108.789 25.7901 109.028C26.6069 107.705 27.5274 106.064 28.1998 104.864C30.7896 100.246 31.3214 99.3795 32.496 99.5424C33.9864 99.7484 33.9297 100.937 33.6595 106.642C33.6471 106.906 33.6336 107.192 33.62 107.494C34.1913 103.116 34.7662 97.4498 35.1944 92.0999C35.2487 91.4201 35.8471 90.9142 36.522 90.9685C37.2018 91.0228 37.7077 91.6175 37.6534 92.2973C35.8002 115.453 34.2776 116.533 33.7767 116.888C33.5275 117.068 33.2363 117.159 32.9451 117.159Z" fill="#1D1B2D"/>
<path d="M56.9295 81.4162C56.8629 81.4162 56.7963 81.4113 56.7284 81.3989C33.298 77.5494 23.3089 61.6848 22.8956 61.0111C22.539 60.4312 22.7204 59.6724 23.3003 59.3159C23.8802 58.9593 24.639 59.1394 24.998 59.7193C25.0943 59.8748 34.8576 75.3063 57.1294 78.9658C57.8018 79.0756 58.2571 79.7111 58.1473 80.3823C58.0461 80.9881 57.523 81.4162 56.9295 81.4162Z" fill="#1D1B2D"/>
<path d="M73.5912 41.7856C73.5209 41.7856 73.4494 41.7733 73.379 41.7486C73.0595 41.6314 72.8941 41.2773 73.0113 40.9565C73.1285 40.6357 84.7376 8.8461 84.4008 1.47397C84.3848 1.13343 84.6488 0.844734 84.9893 0.829928C85.3323 0.800316 85.6186 1.07791 85.6346 1.41845C85.9838 9.03611 74.6536 40.0644 74.1711 41.3822C74.0786 41.6302 73.8429 41.7856 73.5912 41.7856Z" fill="#1D1B2D"/>
<path d="M66.2848 101.128C66.1664 101.128 66.0479 101.095 65.9418 101.023C65.6593 100.834 65.5828 100.452 65.7716 100.169C65.8098 100.111 69.631 94.2789 72.3824 81.2385C75.0968 68.3746 70.164 61.7934 70.1134 61.7292C69.9049 61.4602 69.9542 61.0728 70.2232 60.8643C70.4909 60.6546 70.8771 60.7039 71.0881 60.9717C71.3077 61.2542 76.4331 68.0255 73.5903 81.4939C70.7821 94.7996 66.9597 100.613 66.7981 100.854C66.6784 101.032 66.4835 101.128 66.2848 101.128Z" fill="#1D1B2D"/>
<path d="M4.90939 69.849C4.79218 69.849 4.67373 69.8156 4.56885 69.7465C4.28507 69.5578 4.20734 69.1753 4.39612 68.8915C6.82676 65.2283 22.3274 45.587 32.4188 46.7949C32.7569 46.8356 32.9987 47.1416 32.9592 47.4809C32.9185 47.8177 32.6162 48.0657 32.2732 48.0213C22.8048 46.8911 7.419 66.5682 5.4239 69.5751C5.30422 69.7527 5.10927 69.849 4.90939 69.849Z" fill="#1D1B2D"/>
<path d="M24.237 73.8416C23.8903 73.8379 23.6177 73.5591 23.6201 73.2185C23.6757 67.1012 26.3728 64.2029 26.4888 64.0832C26.7232 63.8377 27.1119 63.8291 27.3586 64.0623C27.6054 64.2955 27.6153 64.6853 27.3833 64.9333C27.3574 64.9593 24.9045 67.6354 24.854 73.2309C24.8503 73.5689 24.5751 73.8416 24.237 73.8416Z" fill="#1D1B2D"/>
<path d="M27.7632 88.8488C27.6534 88.8488 27.5411 88.8192 27.4399 88.7575C27.15 88.5786 27.0599 88.1986 27.2376 87.9086L32.0668 80.0775C32.2457 79.7876 32.6257 79.6975 32.9156 79.8764C33.2056 80.0565 33.2957 80.4353 33.118 80.7265L28.2888 88.5576C28.1728 88.7452 27.9705 88.8488 27.7632 88.8488Z" fill="#1D1B2D"/>
</svg>
