<svg width="148" height="148" viewBox="0 0 148 148" fill="none" xmlns="http://www.w3.org/2000/svg">
<circle cx="74" cy="74" r="74" fill="white"/>
<path d="M43.3899 97.302V95.304H46.3239C46.7079 95.304 47.0559 95.226 47.3679 95.07C47.6799 94.914 47.9259 94.692 48.1059 94.404C48.2859 94.104 48.3759 93.744 48.3759 93.324C48.3759 92.916 48.2859 92.562 48.1059 92.262C47.9259 91.962 47.6799 91.734 47.3679 91.578C47.0559 91.422 46.7079 91.344 46.3239 91.344H43.3899V89.346H46.5759C47.3799 89.346 48.0999 89.508 48.7359 89.832C49.3839 90.156 49.8939 90.618 50.2659 91.218C50.6379 91.806 50.8239 92.508 50.8239 93.324C50.8239 94.14 50.6379 94.848 50.2659 95.448C49.8939 96.036 49.3839 96.492 48.7359 96.816C48.0999 97.14 47.3799 97.302 46.5759 97.302H43.3899ZM41.5899 102V89.346H44.0379V102H41.5899ZM55.6614 102.18C54.8694 102.18 54.1554 101.982 53.5194 101.586C52.8834 101.19 52.3854 100.65 52.0254 99.966C51.6654 99.282 51.4854 98.514 51.4854 97.662C51.4854 96.798 51.6654 96.024 52.0254 95.34C52.3854 94.656 52.8834 94.116 53.5194 93.72C54.1554 93.324 54.8694 93.126 55.6614 93.126C56.2854 93.126 56.8434 93.252 57.3354 93.504C57.8274 93.756 58.2174 94.11 58.5054 94.566C58.8054 95.01 58.9674 95.514 58.9914 96.078V99.21C58.9674 99.786 58.8054 100.296 58.5054 100.74C58.2174 101.184 57.8274 101.538 57.3354 101.802C56.8434 102.054 56.2854 102.18 55.6614 102.18ZM56.0934 100.002C56.7534 100.002 57.2874 99.786 57.6954 99.354C58.1034 98.91 58.3074 98.34 58.3074 97.644C58.3074 97.188 58.2114 96.786 58.0194 96.438C57.8394 96.078 57.5814 95.802 57.2454 95.61C56.9214 95.406 56.5374 95.304 56.0934 95.304C55.6614 95.304 55.2774 95.406 54.9414 95.61C54.6174 95.802 54.3594 96.078 54.1674 96.438C53.9874 96.786 53.8974 97.188 53.8974 97.644C53.8974 98.112 53.9874 98.526 54.1674 98.886C54.3594 99.234 54.6174 99.51 54.9414 99.714C55.2774 99.906 55.6614 100.002 56.0934 100.002ZM58.1814 102V99.66L58.5594 97.536L58.1814 95.448V93.306H60.5214V102H58.1814ZM65.3435 102.072L61.7075 93.306H64.2635L66.6755 100.002H65.8115L68.3135 93.306H70.8875L67.0175 102.072H65.3435ZM62.9315 105.636L65.5775 100.038L67.0175 102.072L65.4335 105.636H62.9315ZM73.2195 102V89.688H75.5775V102H73.2195ZM71.1855 95.376V93.306H77.6115V95.376H71.1855ZM78.9376 102V93.306H81.3136V102H78.9376ZM80.1256 91.902C79.7416 91.902 79.4236 91.776 79.1716 91.524C78.9196 91.26 78.7936 90.936 78.7936 90.552C78.7936 90.18 78.9196 89.862 79.1716 89.598C79.4236 89.334 79.7416 89.202 80.1256 89.202C80.5216 89.202 80.8396 89.334 81.0796 89.598C81.3316 89.862 81.4576 90.18 81.4576 90.552C81.4576 90.936 81.3316 91.26 81.0796 91.524C80.8396 91.776 80.5216 91.902 80.1256 91.902ZM83.4024 102V93.306H85.7604V102H83.4024ZM89.0724 102V96.87C89.0724 96.366 88.9104 95.976 88.5864 95.7C88.2744 95.412 87.8844 95.268 87.4164 95.268C87.1044 95.268 86.8224 95.334 86.5704 95.466C86.3184 95.586 86.1204 95.766 85.9764 96.006C85.8324 96.246 85.7604 96.534 85.7604 96.87L84.8424 96.42C84.8424 95.748 84.9864 95.166 85.2744 94.674C85.5744 94.182 85.9764 93.804 86.4804 93.54C86.9844 93.264 87.5544 93.126 88.1904 93.126C88.7904 93.126 89.3364 93.264 89.8284 93.54C90.3204 93.804 90.7104 94.182 90.9984 94.674C91.2864 95.154 91.4304 95.736 91.4304 96.42V102H89.0724ZM94.7424 102V96.87C94.7424 96.366 94.5804 95.976 94.2564 95.7C93.9444 95.412 93.5544 95.268 93.0864 95.268C92.7864 95.268 92.5044 95.334 92.2404 95.466C91.9884 95.586 91.7904 95.766 91.6464 96.006C91.5024 96.246 91.4304 96.534 91.4304 96.87L90.0804 96.546C90.1284 95.85 90.3144 95.25 90.6384 94.746C90.9624 94.23 91.3884 93.834 91.9164 93.558C92.4444 93.27 93.0324 93.126 93.6804 93.126C94.3284 93.126 94.9104 93.264 95.4264 93.54C95.9424 93.804 96.3504 94.188 96.6504 94.692C96.9504 95.196 97.1004 95.796 97.1004 96.492V102H94.7424ZM103.17 102.18C102.258 102.18 101.448 101.988 100.74 101.604C100.032 101.208 99.4678 100.668 99.0478 99.984C98.6398 99.3 98.4358 98.52 98.4358 97.644C98.4358 96.78 98.6338 96.012 99.0298 95.34C99.4378 94.656 99.9898 94.116 100.686 93.72C101.382 93.312 102.156 93.108 103.008 93.108C103.848 93.108 104.586 93.3 105.222 93.684C105.87 94.056 106.374 94.572 106.734 95.232C107.106 95.88 107.292 96.618 107.292 97.446C107.292 97.602 107.28 97.764 107.256 97.932C107.244 98.088 107.214 98.268 107.166 98.472L99.8578 98.49V96.726L106.068 96.708L105.114 97.446C105.09 96.93 104.994 96.498 104.826 96.15C104.67 95.802 104.436 95.538 104.124 95.358C103.824 95.166 103.452 95.07 103.008 95.07C102.54 95.07 102.132 95.178 101.784 95.394C101.436 95.598 101.166 95.892 100.974 96.276C100.794 96.648 100.704 97.092 100.704 97.608C100.704 98.136 100.8 98.598 100.992 98.994C101.196 99.378 101.484 99.678 101.856 99.894C102.228 100.098 102.66 100.2 103.152 100.2C103.596 100.2 103.998 100.128 104.358 99.984C104.718 99.828 105.03 99.6 105.294 99.3L106.68 100.686C106.26 101.178 105.744 101.55 105.132 101.802C104.532 102.054 103.878 102.18 103.17 102.18Z" fill="#1D1B2D"/>
<path d="M77.7639 48.0942C78.6307 47.2361 79.167 46.0521 79.167 44.7439C79.167 42.124 77.016 40 74.3629 40C72.6855 40 71.2108 40.8503 70.3515 42.1367C70.1232 42.3625 50.9989 65.6382 50.8201 65.9058C49.9533 66.7639 49.417 67.9483 49.417 69.2557C49.417 71.876 51.568 74 54.2211 74C55.8985 74 57.3732 73.15 58.2325 71.8633C58.4608 71.6375 77.5851 48.3614 77.7639 48.0942Z" fill="#6341F0"/>
<path d="M89.0544 59.3281C89.9477 58.4803 90.5 57.3099 90.5 56.0167C90.5 53.4303 88.2895 51.3333 85.563 51.3333C83.8385 51.3333 82.3223 52.1735 81.4392 53.4445C81.2027 53.6691 70.8804 65.7393 70.6956 66.0053C69.8023 66.8531 69.25 68.0234 69.25 69.3163C69.25 71.9031 71.4605 74 74.187 74C75.9115 74 77.4277 73.1598 78.3104 71.8888C78.5469 71.6646 88.8696 59.594 89.0544 59.3281Z" fill="#6341F0"/>
<path d="M100.417 44.9582C100.417 47.6968 98.1966 49.9165 95.4583 49.9165C92.7197 49.9165 90.5 47.6968 90.5 44.9582C90.5 42.2199 92.7197 39.9998 95.4583 39.9998C98.1966 39.9998 100.417 42.2199 100.417 44.9582Z" fill="#FFB459"/>
<path d="M56.5 45.6665C56.5 48.0139 54.5971 49.9165 52.25 49.9165C49.9029 49.9165 48 48.0139 48 45.6665C48 43.3194 49.9029 41.4165 52.25 41.4165C54.5971 41.4165 56.5 43.3194 56.5 45.6665Z" fill="#6341F0"/>
</svg>
