<svg width="139" height="39" viewBox="0 0 139 39" fill="none" xmlns="http://www.w3.org/2000/svg">
<path d="M46.6417 21.8898V19.2258H50.5537C51.0657 19.2258 51.5297 19.1218 51.9457 18.9138C52.3617 18.7058 52.6897 18.4098 52.9297 18.0258C53.1697 17.6258 53.2897 17.1458 53.2897 16.5858C53.2897 16.0418 53.1697 15.5698 52.9297 15.1698C52.6897 14.7698 52.3617 14.4658 51.9457 14.2578C51.5297 14.0498 51.0657 13.9458 50.5537 13.9458H46.6417V11.2818H50.8897C51.9617 11.2818 52.9217 11.4978 53.7697 11.9298C54.6337 12.3618 55.3137 12.9778 55.8097 13.7778C56.3057 14.5618 56.5537 15.4978 56.5537 16.5858C56.5537 17.6738 56.3057 18.6178 55.8097 19.4178C55.3137 20.2018 54.6337 20.8098 53.7697 21.2418C52.9217 21.6738 51.9617 21.8898 50.8897 21.8898H46.6417ZM44.2417 28.1538V11.2818H47.5057V28.1538H44.2417ZM63.0037 28.3938C61.9477 28.3938 60.9957 28.1298 60.1477 27.6018C59.2997 27.0738 58.6357 26.3538 58.1557 25.4418C57.6757 24.5298 57.4357 23.5058 57.4357 22.3698C57.4357 21.2178 57.6757 20.1858 58.1557 19.2738C58.6357 18.3618 59.2997 17.6418 60.1477 17.1138C60.9957 16.5858 61.9477 16.3218 63.0037 16.3218C63.8357 16.3218 64.5797 16.4898 65.2357 16.8258C65.8917 17.1618 66.4117 17.6338 66.7957 18.2418C67.1957 18.8338 67.4117 19.5058 67.4437 20.2578V24.4338C67.4117 25.2018 67.1957 25.8818 66.7957 26.4738C66.4117 27.0658 65.8917 27.5378 65.2357 27.8898C64.5797 28.2258 63.8357 28.3938 63.0037 28.3938ZM63.5797 25.4898C64.4597 25.4898 65.1717 25.2018 65.7157 24.6258C66.2597 24.0338 66.5317 23.2738 66.5317 22.3458C66.5317 21.7378 66.4037 21.2018 66.1477 20.7378C65.9077 20.2578 65.5637 19.8898 65.1157 19.6338C64.6837 19.3618 64.1717 19.2258 63.5797 19.2258C63.0037 19.2258 62.4917 19.3618 62.0437 19.6338C61.6117 19.8898 61.2677 20.2578 61.0117 20.7378C60.7717 21.2018 60.6517 21.7378 60.6517 22.3458C60.6517 22.9698 60.7717 23.5218 61.0117 24.0018C61.2677 24.4658 61.6117 24.8338 62.0437 25.1058C62.4917 25.3618 63.0037 25.4898 63.5797 25.4898ZM66.3637 28.1538V25.0338L66.8677 22.2018L66.3637 19.4178V16.5618H69.4837V28.1538H66.3637ZM75.913 28.2498L71.065 16.5618H74.473L77.689 25.4898H76.537L79.873 16.5618H83.305L78.145 28.2498H75.913ZM72.697 33.0018L76.225 25.5378L78.145 28.2498L76.033 33.0018H72.697ZM86.4144 28.1538V11.7378H89.5584V28.1538H86.4144ZM83.7024 19.3218V16.5618H92.2704V19.3218H83.7024ZM94.0385 28.1538V16.5618H97.2065V28.1538H94.0385ZM95.6225 14.6898C95.1105 14.6898 94.6865 14.5218 94.3505 14.1858C94.0145 13.8338 93.8465 13.4018 93.8465 12.8898C93.8465 12.3938 94.0145 11.9698 94.3505 11.6178C94.6865 11.2658 95.1105 11.0898 95.6225 11.0898C96.1505 11.0898 96.5745 11.2658 96.8945 11.6178C97.2305 11.9698 97.3985 12.3938 97.3985 12.8898C97.3985 13.4018 97.2305 13.8338 96.8945 14.1858C96.5745 14.5218 96.1505 14.6898 95.6225 14.6898ZM99.9916 28.1538V16.5618H103.136V28.1538H99.9916ZM107.552 28.1538V21.3138C107.552 20.6418 107.336 20.1218 106.904 19.7538C106.488 19.3698 105.968 19.1778 105.344 19.1778C104.928 19.1778 104.552 19.2658 104.216 19.4418C103.88 19.6018 103.616 19.8418 103.424 20.1618C103.232 20.4818 103.136 20.8658 103.136 21.3138L101.912 20.7138C101.912 19.8178 102.104 19.0418 102.488 18.3858C102.888 17.7298 103.424 17.2258 104.096 16.8738C104.768 16.5058 105.528 16.3218 106.376 16.3218C107.176 16.3218 107.904 16.5058 108.56 16.8738C109.216 17.2258 109.736 17.7298 110.12 18.3858C110.504 19.0258 110.696 19.8018 110.696 20.7138V28.1538H107.552ZM115.112 28.1538V21.3138C115.112 20.6418 114.896 20.1218 114.464 19.7538C114.048 19.3698 113.528 19.1778 112.904 19.1778C112.504 19.1778 112.128 19.2658 111.776 19.4418C111.44 19.6018 111.176 19.8418 110.984 20.1618C110.792 20.4818 110.696 20.8658 110.696 21.3138L108.896 20.8818C108.96 19.9538 109.208 19.1538 109.64 18.4818C110.072 17.7938 110.64 17.2658 111.344 16.8978C112.048 16.5138 112.832 16.3218 113.696 16.3218C114.56 16.3218 115.336 16.5058 116.024 16.8738C116.712 17.2258 117.256 17.7378 117.656 18.4098C118.056 19.0818 118.256 19.8818 118.256 20.8098V28.1538H115.112ZM126.348 28.3938C125.132 28.3938 124.052 28.1378 123.108 27.6258C122.164 27.0978 121.412 26.3778 120.852 25.4658C120.308 24.5538 120.036 23.5138 120.036 22.3458C120.036 21.1938 120.3 20.1698 120.828 19.2738C121.372 18.3618 122.108 17.6418 123.036 17.1138C123.964 16.5698 124.996 16.2978 126.132 16.2978C127.252 16.2978 128.236 16.5538 129.084 17.0658C129.948 17.5618 130.62 18.2498 131.1 19.1298C131.596 19.9938 131.844 20.9778 131.844 22.0818C131.844 22.2898 131.828 22.5058 131.796 22.7298C131.78 22.9378 131.74 23.1778 131.676 23.4498L121.932 23.4738V21.1218L130.212 21.0978L128.94 22.0818C128.908 21.3938 128.78 20.8178 128.556 20.3538C128.348 19.8898 128.036 19.5378 127.62 19.2978C127.22 19.0418 126.724 18.9138 126.132 18.9138C125.508 18.9138 124.964 19.0578 124.5 19.3458C124.036 19.6178 123.676 20.0098 123.42 20.5218C123.18 21.0178 123.06 21.6098 123.06 22.2978C123.06 23.0018 123.188 23.6178 123.444 24.1458C123.716 24.6578 124.1 25.0578 124.596 25.3458C125.092 25.6178 125.668 25.7538 126.324 25.7538C126.916 25.7538 127.452 25.6578 127.932 25.4658C128.412 25.2578 128.828 24.9538 129.18 24.5538L131.028 26.4018C130.468 27.0578 129.78 27.5538 128.964 27.8898C128.164 28.2258 127.292 28.3938 126.348 28.3938Z" fill="#0F0840"/>
<path d="M18.0213 13.9151C18.5312 13.4104 18.8467 12.7139 18.8467 11.9443C18.8467 10.4032 17.5814 9.15381 16.0207 9.15381C15.034 9.15381 14.1666 9.654 13.6611 10.4107C13.5268 10.5435 2.27721 24.2351 2.17205 24.3925C1.66216 24.8973 1.34668 25.594 1.34668 26.3631C1.34668 27.9044 2.61197 29.1538 4.17264 29.1538C5.15931 29.1538 6.0268 28.6538 6.53229 27.8969C6.66657 27.7641 17.9161 14.0723 18.0213 13.9151Z" fill="#009D78"/>
<path d="M24.6633 20.5233C25.1888 20.0246 25.5137 19.3361 25.5137 18.5754C25.5137 17.054 24.2134 15.8205 22.6095 15.8205C21.5951 15.8205 20.7032 16.3147 20.1838 17.0623C20.0447 17.1945 13.9727 24.2946 13.864 24.451C13.3385 24.9497 13.0137 25.6382 13.0137 26.3987C13.0137 27.9203 14.314 29.1538 15.9178 29.1538C16.9322 29.1538 17.8241 28.6596 18.3433 27.9119C18.4824 27.78 24.5546 20.6797 24.6633 20.5233Z" fill="#009D78"/>
<path d="M31.347 12.0706C31.347 13.6816 30.0411 14.9873 28.4303 14.9873C26.8194 14.9873 25.5137 13.6816 25.5137 12.0706C25.5137 10.4599 26.8194 9.15397 28.4303 9.15397C30.0411 9.15397 31.347 10.4599 31.347 12.0706Z" fill="#FFB459"/>
<path d="M5.51367 12.4873C5.51367 13.8681 4.39432 14.9873 3.01367 14.9873C1.63302 14.9873 0.513672 13.8681 0.513672 12.4873C0.513672 11.1067 1.63302 9.9873 3.01367 9.9873C4.39432 9.9873 5.51367 11.1067 5.51367 12.4873Z" fill="#009D78"/>
</svg>
