<svg width="176" height="26" viewBox="0 0 176 26" fill="none" xmlns="http://www.w3.org/2000/svg">
<path d="M7.238 6.514C6.90067 6.514 6.556 6.54333 6.204 6.602C5.852 6.66067 5.52933 6.77067 5.236 6.932C4.94267 7.07867 4.70067 7.29133 4.51 7.57C4.31933 7.834 4.224 8.17133 4.224 8.582C4.224 9.198 4.42933 9.66733 4.84 9.99C5.25067 10.298 5.742 10.5327 6.314 10.694C6.72467 10.8113 7.13533 10.9213 7.546 11.024C7.97133 11.1267 8.36 11.2147 8.712 11.288C9.328 11.42 9.90733 11.5813 10.45 11.772C11.0073 11.9627 11.4913 12.2193 11.902 12.542C12.3127 12.85 12.6353 13.246 12.87 13.73C13.1193 14.1993 13.244 14.786 13.244 15.49C13.244 16.326 13.09 17.0373 12.782 17.624C12.4887 18.2107 12.0853 18.6947 11.572 19.076C11.0587 19.4573 10.4573 19.736 9.768 19.912C9.07867 20.088 8.338 20.176 7.546 20.176C6.73933 20.176 5.96933 20.0953 5.236 19.934C4.51733 19.758 3.872 19.4867 3.3 19.12C2.728 18.7387 2.25133 18.2547 1.87 17.668C1.48867 17.0813 1.24667 16.3773 1.144 15.556H3.784C3.90133 15.996 4.092 16.3627 4.356 16.656C4.62 16.9493 4.92067 17.184 5.258 17.36C5.61 17.536 5.984 17.6607 6.38 17.734C6.776 17.8073 7.16467 17.844 7.546 17.844C7.95667 17.844 8.35267 17.8147 8.734 17.756C9.11533 17.6827 9.44533 17.5653 9.724 17.404C10.0027 17.2427 10.23 17.03 10.406 16.766C10.582 16.502 10.67 16.1573 10.67 15.732C10.67 15.1453 10.516 14.72 10.208 14.456C9.9 14.1773 9.48933 13.972 8.976 13.84C8.272 13.6347 7.546 13.4587 6.798 13.312C6.06467 13.1507 5.368 12.9453 4.708 12.696C4.268 12.5347 3.86467 12.344 3.498 12.124C3.13133 11.904 2.80867 11.64 2.53 11.332C2.25133 11.024 2.03133 10.6647 1.87 10.254C1.72333 9.82867 1.65 9.33733 1.65 8.78C1.65 7.92933 1.81133 7.218 2.134 6.646C2.45667 6.05933 2.87467 5.59 3.388 5.238C3.916 4.886 4.51 4.63667 5.17 4.49C5.83 4.32867 6.50467 4.248 7.194 4.248C7.92733 4.248 8.624 4.336 9.284 4.512C9.944 4.67333 10.5307 4.93 11.044 5.282C11.5573 5.634 11.968 6.08867 12.276 6.646C12.5987 7.20333 12.7893 7.878 12.848 8.67H10.34C10.2813 8.274 10.1567 7.944 9.966 7.68C9.79 7.416 9.56267 7.20333 9.284 7.042C9.02 6.866 8.712 6.74133 8.36 6.668C8.008 6.58 7.634 6.52867 7.238 6.514ZM17.848 15.05C17.8773 15.4753 17.9653 15.8713 18.112 16.238C18.2587 16.6047 18.4567 16.9273 18.706 17.206C18.97 17.47 19.2853 17.6827 19.652 17.844C20.0333 18.0053 20.4733 18.086 20.972 18.086C21.5 18.086 21.984 17.9907 22.424 17.8C22.864 17.6093 23.1867 17.2793 23.392 16.81H25.966C25.8193 17.3967 25.5773 17.9027 25.24 18.328C24.9173 18.7533 24.5287 19.1053 24.074 19.384C23.634 19.648 23.1427 19.846 22.6 19.978C22.072 20.0953 21.5073 20.154 20.906 20.154C19.982 20.154 19.168 20.0147 18.464 19.736C17.7747 19.4573 17.1953 19.054 16.726 18.526C16.2567 17.998 15.9047 17.3747 15.67 16.656C15.45 15.9227 15.34 15.1013 15.34 14.192C15.34 13.312 15.4647 12.5127 15.714 11.794C15.9633 11.0607 16.3227 10.43 16.792 9.902C17.276 9.374 17.8553 8.96333 18.53 8.67C19.2047 8.362 19.9747 8.208 20.84 8.208C21.7493 8.208 22.534 8.362 23.194 8.67C23.854 8.96333 24.404 9.36667 24.844 9.88C25.2987 10.3933 25.636 10.9947 25.856 11.684C26.076 12.3733 26.186 13.1213 26.186 13.928C26.186 14.3093 26.164 14.6833 26.12 15.05H17.848ZM23.744 13.158C23.7147 12.278 23.436 11.596 22.908 11.112C22.38 10.628 21.698 10.386 20.862 10.386C20.3927 10.386 19.982 10.4593 19.63 10.606C19.278 10.7527 18.9773 10.9507 18.728 11.2C18.4933 11.4493 18.3027 11.7427 18.156 12.08C18.0093 12.4173 17.914 12.7767 17.87 13.158H23.744ZM33.6698 8.208C34.5938 8.208 35.4078 8.35467 36.1118 8.648C36.8158 8.94133 37.4098 9.352 37.8938 9.88C38.3925 10.3933 38.7665 11.0167 39.0158 11.75C39.2651 12.4833 39.3898 13.2973 39.3898 14.192C39.3898 15.1013 39.2651 15.9227 39.0158 16.656C38.7811 17.3747 38.4218 17.998 37.9378 18.526C37.4538 19.054 36.8525 19.4573 36.1338 19.736C35.4298 20.0147 34.6085 20.154 33.6698 20.154C32.7458 20.154 31.9318 20.0147 31.2278 19.736C30.5238 19.4427 29.9298 19.0393 29.4458 18.526C28.9765 17.998 28.6171 17.3673 28.3678 16.634C28.1331 15.9007 28.0158 15.0867 28.0158 14.192C28.0158 13.2973 28.1331 12.4833 28.3678 11.75C28.6171 11.0167 28.9838 10.3933 29.4678 9.88C29.9518 9.352 30.5458 8.94133 31.2498 8.648C31.9538 8.35467 32.7605 8.208 33.6698 8.208ZM33.6698 17.976C34.2418 17.976 34.7258 17.8807 35.1218 17.69C35.5325 17.4847 35.8625 17.2133 36.1118 16.876C36.3758 16.5387 36.5665 16.1427 36.6838 15.688C36.8158 15.2333 36.8818 14.742 36.8818 14.214C36.8818 13.686 36.8158 13.1947 36.6838 12.74C36.5665 12.2707 36.3758 11.8673 36.1118 11.53C35.8625 11.1927 35.5325 10.9287 35.1218 10.738C34.7258 10.5473 34.2418 10.452 33.6698 10.452C33.1125 10.452 32.6358 10.5473 32.2398 10.738C31.8438 10.9287 31.5138 11.1927 31.2498 11.53C30.9858 11.8673 30.7878 12.2707 30.6558 12.74C30.5385 13.1947 30.4798 13.686 30.4798 14.214C30.4798 14.742 30.5385 15.2333 30.6558 15.688C30.7878 16.1427 30.9785 16.5387 31.2278 16.876C31.4918 17.2133 31.8218 17.4847 32.2178 17.69C32.6285 17.8807 33.1125 17.976 33.6698 17.976ZM48.5107 6.536C47.6894 6.55067 46.9854 6.712 46.3987 7.02C45.812 7.328 45.328 7.73867 44.9467 8.252C44.58 8.76533 44.3087 9.36667 44.1327 10.056C43.9567 10.7307 43.8687 11.4493 43.8687 12.212C43.8687 12.9747 43.9567 13.7007 44.1327 14.39C44.3234 15.0647 44.6094 15.666 44.9907 16.194C45.3867 16.7073 45.8854 17.118 46.4867 17.426C47.088 17.7193 47.7994 17.866 48.6207 17.866C49.9554 17.866 50.9894 17.5213 51.7227 16.832C52.4707 16.128 52.8594 15.2187 52.8887 14.104H48.3347V11.948H55.3307C55.3307 12.5053 55.316 13.07 55.2867 13.642C55.272 14.1993 55.1914 14.786 55.0447 15.402C54.8687 16.062 54.612 16.6853 54.2747 17.272C53.9374 17.844 53.5047 18.3427 52.9767 18.768C52.4487 19.1933 51.818 19.5307 51.0847 19.78C50.366 20.0293 49.5374 20.154 48.5987 20.154C47.3814 20.154 46.3107 19.9633 45.3867 19.582C44.4774 19.186 43.7147 18.636 43.0987 17.932C42.4827 17.228 42.0207 16.392 41.7127 15.424C41.4047 14.456 41.2507 13.4 41.2507 12.256C41.2507 11.0973 41.4047 10.0267 41.7127 9.044C42.0207 8.06133 42.4754 7.218 43.0767 6.514C43.6927 5.79533 44.4554 5.238 45.3647 4.842C46.2887 4.446 47.3594 4.248 48.5767 4.248C49.4274 4.248 50.212 4.358 50.9307 4.578C51.664 4.78333 52.3094 5.09133 52.8667 5.502C53.424 5.898 53.886 6.39667 54.2527 6.998C54.6194 7.58467 54.8614 8.25933 54.9787 9.022H52.4047C52.214 8.24467 51.7667 7.636 51.0627 7.196C50.3734 6.756 49.5227 6.536 48.5107 6.536ZM62.7136 17.976C63.6816 17.976 64.3709 17.7047 64.7816 17.162C65.1922 16.6193 65.3976 15.8493 65.3976 14.852V8.406H67.8836V14.94C67.8836 15.908 67.7516 16.7293 67.4876 17.404C67.2236 18.064 66.8642 18.5993 66.4096 19.01C65.9549 19.406 65.4122 19.6993 64.7816 19.89C64.1656 20.066 63.4762 20.154 62.7136 20.154C61.1002 20.154 59.8389 19.736 58.9296 18.9C58.0349 18.064 57.5876 16.744 57.5876 14.94V8.406H60.0736V14.852C60.0736 15.8493 60.2862 16.6193 60.7116 17.162C61.1516 17.69 61.8189 17.9613 62.7136 17.976ZM70.5652 20V8.406H72.9192L73.0512 10.056C73.9458 8.824 75.1632 8.208 76.7032 8.208C76.8498 8.208 76.9892 8.21533 77.1212 8.23C77.2678 8.23 77.3998 8.23733 77.5172 8.252V10.584C77.3412 10.584 77.1652 10.5913 76.9892 10.606C76.8278 10.606 76.6665 10.606 76.5052 10.606C75.8598 10.6207 75.3172 10.738 74.8772 10.958C74.4518 11.1633 74.0998 11.442 73.8212 11.794C73.5572 12.146 73.3665 12.564 73.2492 13.048C73.1318 13.5173 73.0732 14.0233 73.0732 14.566V20H70.5652ZM84.2194 17.976C85.1874 17.976 85.8768 17.7047 86.2874 17.162C86.6981 16.6193 86.9034 15.8493 86.9034 14.852V8.406H89.3894V14.94C89.3894 15.908 89.2574 16.7293 88.9934 17.404C88.7294 18.064 88.3701 18.5993 87.9154 19.01C87.4608 19.406 86.9181 19.6993 86.2874 19.89C85.6714 20.066 84.9821 20.154 84.2194 20.154C82.6061 20.154 81.3448 19.736 80.4354 18.9C79.5408 18.064 79.0934 16.744 79.0934 14.94V8.406H81.5794V14.852C81.5794 15.8493 81.7921 16.6193 82.2174 17.162C82.6574 17.69 83.3248 17.9613 84.2194 17.976Z" fill="#1D1B2D"/>
<rect x="99" y="3" width="77" height="20" rx="5" fill="#EEE3FF"/>
<path d="M112.16 9.223L113.854 16.175L115.625 9.223H116.659L114.547 17H113.095L111.401 10.136L109.707 17H108.266L106.154 9.223H107.232L109.003 16.175L110.697 9.223H112.16ZM118.28 14.448C118.302 14.7047 118.354 14.943 118.434 15.163C118.522 15.3757 118.64 15.5627 118.786 15.724C118.933 15.8853 119.113 16.0137 119.325 16.109C119.545 16.197 119.798 16.241 120.084 16.241C120.224 16.241 120.367 16.23 120.513 16.208C120.667 16.1787 120.81 16.1347 120.942 16.076C121.074 16.01 121.192 15.9257 121.294 15.823C121.397 15.7203 121.474 15.5957 121.525 15.449H122.482C122.416 15.7277 122.303 15.9697 122.141 16.175C121.987 16.3803 121.8 16.549 121.58 16.681C121.368 16.813 121.129 16.912 120.865 16.978C120.601 17.0367 120.334 17.066 120.062 17.066C119.6 17.066 119.197 16.9927 118.852 16.846C118.515 16.6993 118.233 16.4977 118.005 16.241C117.778 15.977 117.609 15.6653 117.499 15.306C117.389 14.9393 117.334 14.5397 117.334 14.107C117.334 13.6743 117.393 13.2783 117.51 12.919C117.635 12.5523 117.811 12.237 118.038 11.973C118.266 11.709 118.544 11.5037 118.874 11.357C119.204 11.2103 119.597 11.137 120.051 11.137C120.513 11.137 120.913 11.2287 121.25 11.412C121.588 11.5953 121.859 11.8373 122.064 12.138C122.27 12.4313 122.413 12.7503 122.493 13.095C122.581 13.4397 122.618 13.7587 122.603 14.052C122.603 14.118 122.6 14.184 122.592 14.25C122.592 14.316 122.589 14.382 122.581 14.448H118.28ZM121.657 13.634C121.643 13.1427 121.489 12.743 121.195 12.435C120.902 12.127 120.51 11.973 120.018 11.973C119.747 11.973 119.509 12.017 119.303 12.105C119.098 12.193 118.926 12.314 118.786 12.468C118.647 12.622 118.537 12.8017 118.456 13.007C118.376 13.205 118.324 13.414 118.302 13.634H121.657ZM124.531 10.213C124.34 10.1983 124.186 10.136 124.069 10.026C123.952 9.916 123.893 9.76933 123.893 9.586C123.893 9.38067 123.955 9.223 124.08 9.113C124.212 9.003 124.377 8.948 124.575 8.948C124.802 8.948 124.978 9.04333 125.103 9.234C125.198 9.41 125.246 9.60433 125.246 9.817C125.246 10.015 125.213 10.202 125.147 10.378C125.088 10.5467 125.008 10.708 124.905 10.862C124.802 11.016 124.681 11.1517 124.542 11.269C124.41 11.3863 124.271 11.4707 124.124 11.522L123.86 11.159C124.007 11.0563 124.142 10.917 124.267 10.741C124.399 10.565 124.487 10.389 124.531 10.213ZM126.728 17V11.203H127.63L127.674 12.105C127.887 11.7677 128.158 11.522 128.488 11.368C128.818 11.214 129.192 11.137 129.61 11.137H129.907V12.017H129.566C129.222 12.017 128.928 12.0757 128.686 12.193C128.444 12.303 128.246 12.457 128.092 12.655C127.946 12.8457 127.836 13.073 127.762 13.337C127.696 13.601 127.663 13.8797 127.663 14.173V17H126.728ZM131.45 14.448C131.472 14.7047 131.524 14.943 131.604 15.163C131.692 15.3757 131.81 15.5627 131.956 15.724C132.103 15.8853 132.283 16.0137 132.495 16.109C132.715 16.197 132.968 16.241 133.254 16.241C133.394 16.241 133.537 16.23 133.683 16.208C133.837 16.1787 133.98 16.1347 134.112 16.076C134.244 16.01 134.362 15.9257 134.464 15.823C134.567 15.7203 134.644 15.5957 134.695 15.449H135.652C135.586 15.7277 135.473 15.9697 135.311 16.175C135.157 16.3803 134.97 16.549 134.75 16.681C134.538 16.813 134.299 16.912 134.035 16.978C133.771 17.0367 133.504 17.066 133.232 17.066C132.77 17.066 132.367 16.9927 132.022 16.846C131.685 16.6993 131.403 16.4977 131.175 16.241C130.948 15.977 130.779 15.6653 130.669 15.306C130.559 14.9393 130.504 14.5397 130.504 14.107C130.504 13.6743 130.563 13.2783 130.68 12.919C130.805 12.5523 130.981 12.237 131.208 11.973C131.436 11.709 131.714 11.5037 132.044 11.357C132.374 11.2103 132.767 11.137 133.221 11.137C133.683 11.137 134.083 11.2287 134.42 11.412C134.758 11.5953 135.029 11.8373 135.234 12.138C135.44 12.4313 135.583 12.7503 135.663 13.095C135.751 13.4397 135.788 13.7587 135.773 14.052C135.773 14.118 135.77 14.184 135.762 14.25C135.762 14.316 135.759 14.382 135.751 14.448H131.45ZM134.827 13.634C134.813 13.1427 134.659 12.743 134.365 12.435C134.072 12.127 133.68 11.973 133.188 11.973C132.917 11.973 132.679 12.017 132.473 12.105C132.268 12.193 132.096 12.314 131.956 12.468C131.817 12.622 131.707 12.8017 131.626 13.007C131.546 13.205 131.494 13.414 131.472 13.634H134.827ZM145.341 12.743V9.223H146.298V17H145.341V13.623H141.172V17H140.215V9.223H141.172V12.743H145.341ZM148.526 9.08C148.702 9.08 148.852 9.13867 148.977 9.256C149.102 9.366 149.164 9.51267 149.164 9.696C149.164 9.87933 149.102 10.0297 148.977 10.147C148.852 10.2643 148.702 10.323 148.526 10.323C148.343 10.323 148.192 10.2643 148.075 10.147C147.958 10.0297 147.899 9.87933 147.899 9.696C147.899 9.51267 147.958 9.366 148.075 9.256C148.192 9.13867 148.343 9.08 148.526 9.08ZM148.064 17V11.203H148.999V17H148.064ZM150.554 17V11.203H151.456L151.5 12.105C151.713 11.7677 151.984 11.522 152.314 11.368C152.644 11.214 153.018 11.137 153.436 11.137H153.733V12.017H153.392C153.048 12.017 152.754 12.0757 152.512 12.193C152.27 12.303 152.072 12.457 151.918 12.655C151.772 12.8457 151.662 13.073 151.588 13.337C151.522 13.601 151.489 13.8797 151.489 14.173V17H150.554ZM155.197 9.08C155.373 9.08 155.523 9.13867 155.648 9.256C155.773 9.366 155.835 9.51267 155.835 9.696C155.835 9.87933 155.773 10.0297 155.648 10.147C155.523 10.2643 155.373 10.323 155.197 10.323C155.014 10.323 154.863 10.2643 154.746 10.147C154.629 10.0297 154.57 9.87933 154.57 9.696C154.57 9.51267 154.629 9.366 154.746 9.256C154.863 9.13867 155.014 9.08 155.197 9.08ZM154.735 17V11.203H155.67V17H154.735ZM157.225 17V11.203H158.127L158.171 12.083C158.267 11.9217 158.384 11.7823 158.523 11.665C158.67 11.5477 158.828 11.4487 158.996 11.368C159.165 11.2873 159.341 11.2287 159.524 11.192C159.715 11.1553 159.898 11.137 160.074 11.137C160.492 11.137 160.844 11.2067 161.13 11.346C161.416 11.478 161.644 11.665 161.812 11.907C161.981 12.1417 162.102 12.424 162.175 12.754C162.249 13.0767 162.285 13.425 162.285 13.799V17H161.35V14.052C161.35 13.7807 161.332 13.5203 161.295 13.271C161.266 13.0217 161.2 12.8017 161.097 12.611C161.002 12.413 160.863 12.2553 160.679 12.138C160.496 12.0207 160.25 11.962 159.942 11.962C159.649 11.962 159.385 12.0353 159.15 12.182C158.916 12.3213 158.729 12.4863 158.589 12.677C158.421 12.919 158.307 13.1867 158.248 13.48C158.19 13.766 158.16 14.0557 158.16 14.349V17H157.225ZM168.894 16.956C168.894 17.7773 168.674 18.4227 168.234 18.892C167.794 19.3613 167.131 19.596 166.243 19.596C165.95 19.596 165.668 19.563 165.396 19.497C165.132 19.431 164.89 19.3247 164.67 19.178C164.458 19.0387 164.274 18.859 164.12 18.639C163.974 18.4263 163.871 18.1697 163.812 17.869H164.78C164.824 18.0377 164.898 18.177 165 18.287C165.11 18.4043 165.235 18.496 165.374 18.562C165.514 18.6353 165.664 18.6867 165.825 18.716C165.987 18.7453 166.144 18.76 166.298 18.76C166.592 18.76 166.845 18.7123 167.057 18.617C167.27 18.529 167.442 18.4043 167.574 18.243C167.706 18.0817 167.802 17.8873 167.86 17.66C167.926 17.44 167.959 17.198 167.959 16.934V16.131C167.769 16.4683 167.497 16.7103 167.145 16.857C166.793 16.9963 166.427 17.066 166.045 17.066C165.605 17.0587 165.224 16.9817 164.901 16.835C164.579 16.681 164.315 16.472 164.109 16.208C163.904 15.944 163.75 15.636 163.647 15.284C163.552 14.9247 163.504 14.536 163.504 14.118C163.504 13.7 163.556 13.3113 163.658 12.952C163.761 12.5853 163.919 12.27 164.131 12.006C164.344 11.7347 164.612 11.522 164.934 11.368C165.257 11.214 165.642 11.137 166.089 11.137C166.427 11.137 166.768 11.1993 167.112 11.324C167.457 11.4487 167.739 11.6503 167.959 11.929L168.003 11.203H168.894V16.956ZM166.166 11.973C165.851 11.973 165.583 12.0317 165.363 12.149C165.143 12.259 164.964 12.4093 164.824 12.6C164.692 12.7907 164.593 13.018 164.527 13.282C164.469 13.5387 164.439 13.8137 164.439 14.107C164.439 14.4297 164.469 14.7157 164.527 14.965C164.586 15.207 164.685 15.4233 164.824 15.614C164.964 15.8047 165.143 15.9587 165.363 16.076C165.583 16.186 165.855 16.241 166.177 16.241C166.551 16.241 166.859 16.153 167.101 15.977C167.343 15.801 167.538 15.581 167.684 15.317C167.787 15.1337 167.86 14.9357 167.904 14.723C167.948 14.503 167.97 14.2867 167.97 14.074C167.97 13.81 167.945 13.568 167.893 13.348C167.849 13.128 167.765 12.9227 167.64 12.732C167.494 12.5193 167.299 12.3397 167.057 12.193C166.815 12.0463 166.518 11.973 166.166 11.973Z" fill="#6808E2"/>
</svg>
