<svg width="115" height="130" viewBox="0 0 115 130" fill="none" xmlns="http://www.w3.org/2000/svg">
<path d="M13.579 77.3037L29.5424 101.597C29.5424 101.597 14.8213 118.228 5.41297 100.281C-4.48934 81.3907 13.579 77.3037 13.579 77.3037Z" fill="#6341F0"/>
<path d="M83.6287 87.2227C78.9088 87.2227 72.0323 80.8831 61.2145 66.8409C45.8058 46.8394 43.3542 34.629 46.197 29.8721C47.0744 28.4063 48.4062 27.6312 50.0515 27.6312C58.2755 27.7013 73.5143 48.4986 78.4899 57.1595L79.271 58.5188C86.4399 70.9759 92.6313 81.7335 86.5585 86.2373C85.6811 86.8877 84.7116 87.2227 83.6287 87.2227ZM48.4681 31.1898C46.6159 34.2862 47.6592 44.9491 63.313 65.2699C74.6841 80.0314 81.9676 86.3866 84.975 84.1626C89.1984 81.0298 83.2638 70.7162 76.9802 59.7989L76.1977 58.4396C69.6901 47.1121 55.853 30.2771 50.0739 30.2278C49.3441 30.2278 48.8699 30.5173 48.4681 31.1898Z" fill="#1D1B2D"/>
<path d="M82.7507 89.7297C81.6192 89.7297 80.3532 89.5194 78.9595 89.0987C66.3619 85.2895 46.0976 52.831 43.3589 40.8219C42.3353 36.3324 42.6897 32.8647 44.4114 30.5148C46.1582 28.1311 48.6716 27.8598 48.777 27.8494C49.4963 27.787 50.1457 28.2999 50.2182 29.0126C50.2893 29.7215 49.7676 30.3538 49.051 30.4317C48.9641 30.4434 47.5374 30.6459 46.5152 32.0805C45.3006 33.7825 45.0991 36.6076 45.9303 40.2519C48.4991 51.5172 68.1008 83.0993 79.7328 86.6164C82.2884 87.3902 84.13 87.3019 85.2023 86.3542C86.8634 84.8845 86.6145 81.4271 86.38 80.2184C86.243 79.5161 86.7093 78.8345 87.422 78.6982C88.1399 78.5631 88.8249 79.0188 88.9659 79.7212C89.0133 79.9575 90.0764 85.5207 86.9701 88.2795C85.8794 89.2455 84.4685 89.7297 82.7507 89.7297Z" fill="#1D1B2D"/>
<path d="M14.8873 110.549C13.8019 110.549 12.4622 110.205 10.9262 109.128C5.25113 105.146 -0.106414 93.2677 0.00160617 88.6328C0.0832801 85.1248 5.1115 81.461 13.9902 75.2851C19.2569 71.6239 25.2257 67.4719 29.6848 63.1785C39.8941 53.3427 42.4852 36.8375 42.5103 36.6714C42.617 35.9625 43.2927 35.4847 44.0067 35.5782C44.726 35.6834 45.2226 36.3442 45.1159 37.0543C45.0079 37.7658 42.364 54.5955 31.5264 65.0351C26.9171 69.4752 20.8561 73.6894 15.5091 77.4077C9.20705 81.7895 2.69026 86.3218 2.63493 88.6925C2.55326 92.229 7.43393 103.49 12.4556 107.013C13.6873 107.879 14.7661 108.147 15.6606 107.819C18.6825 106.71 24.3075 103.227 30.2618 99.5384C36.6943 95.5552 43.3454 91.4358 47.8862 89.5701C56.7228 85.9388 81.4371 87.2345 82.4857 87.2955C83.2115 87.3345 83.7688 87.9473 83.7279 88.6626C83.6884 89.3793 83.0693 89.9258 82.3395 89.8869C82.0905 89.8765 57.1813 88.564 48.8993 91.9668C44.5613 93.7493 38.0037 97.8104 31.6634 101.736C25.5919 105.498 19.8563 109.051 16.5788 110.253C16.119 110.422 15.55 110.549 14.8873 110.549Z" fill="#1D1B2D"/>
<path d="M39.7494 130C36.9264 130 33.8399 127.657 31.5175 123.685C27.7038 117.165 19.1478 108.304 19.0609 108.216C18.559 107.698 18.5774 106.876 19.103 106.381C19.6286 105.883 20.4625 105.904 20.9657 106.423C21.3253 106.794 29.826 115.594 33.7991 122.389C36.0174 126.182 38.5559 127.614 40.1143 127.375C41.5238 127.144 42.0666 125.448 42.2642 124.458C43.0598 120.47 35.7118 107.838 30.8944 100.813C30.4873 100.22 30.6454 99.4122 31.2487 99.0111C31.8521 98.6099 32.6701 98.7644 33.0785 99.359C34.4169 101.31 46.1187 118.606 44.8501 124.959C44.2889 127.766 42.72 129.581 40.5451 129.935C40.2829 129.978 40.0168 130 39.7494 130Z" fill="#1D1B2D"/>
<path d="M29.5423 102.896C29.1102 102.896 28.6874 102.687 28.4358 102.304L12.4725 78.01C12.0773 77.4076 12.2511 76.604 12.8624 76.2132C13.4736 75.8237 14.289 75.9964 14.6842 76.5975L30.6475 100.891C31.0427 101.493 30.8688 102.297 30.2576 102.688C30.0363 102.828 29.7873 102.896 29.5423 102.896Z" fill="#1D1B2D"/>
<path d="M61.3913 65.4335C60.7972 65.4335 60.2584 65.0337 60.1122 64.4404C59.9423 63.7432 60.3756 63.0421 61.0831 62.8733C64.6596 62.0216 67.5313 60.2339 68.2308 58.4241C68.4956 57.7386 68.4139 57.1271 67.9726 56.5C67.4734 55.7899 66.8924 55.438 66.1455 55.3925C63.4648 55.2212 59.4483 58.9109 58.1481 60.3455C57.6633 60.8778 56.8307 60.9259 56.288 60.4494C55.7453 59.9729 55.6978 59.1524 56.1813 58.6175C56.7451 57.9943 61.7839 52.5454 66.3049 52.7986C67.8567 52.8921 69.1833 53.6606 70.1383 55.02C71.0657 56.3377 71.262 57.8749 70.6929 59.3472C69.668 62.0009 66.2219 64.3183 61.7022 65.3946C61.5981 65.4231 61.4941 65.4335 61.3913 65.4335Z" fill="#1D1B2D"/>
<path d="M38.7914 129.887C38.1473 129.887 37.5835 129.421 37.4899 128.773C37.4899 128.773 37.2752 127.754 35.4823 122.909C33.6434 117.94 23.3722 106.835 23.2695 106.723C22.7781 106.195 22.815 105.373 23.3524 104.888C23.8899 104.406 24.7225 104.442 25.2138 104.972C25.6512 105.443 35.9434 116.573 37.9589 122.019C39.8111 127.024 40.0666 128.172 40.0995 128.406C40.2036 129.115 39.703 129.773 38.9825 129.875C38.9166 129.883 38.8534 129.887 38.7914 129.887Z" fill="#1D1B2D"/>
<path d="M83.9863 85.8076C83.9612 85.8076 83.9362 85.8063 83.9099 85.8037C83.5502 85.7634 83.2907 85.4414 83.3316 85.0857C83.3421 84.9857 84.3327 74.9604 73.1421 57.4945C61.8935 39.9404 47.341 32.3246 47.1961 32.2506C46.8734 32.0844 46.7482 31.6923 46.9168 31.3742C47.0855 31.0574 47.4806 30.9341 47.8047 31.099C47.9536 31.1756 62.809 38.9355 74.2565 56.8025C85.733 74.7137 84.691 84.8131 84.641 85.235C84.6001 85.5648 84.3156 85.8076 83.9863 85.8076Z" fill="#1D1B2D"/>
<path d="M67.2749 54.3293C67.0576 54.3293 66.8441 54.2229 66.719 54.0295C58.1511 40.7363 46.3664 35.6704 46.2491 35.621C45.9145 35.4808 45.7591 35.1004 45.9014 34.7694C46.0436 34.4409 46.4283 34.2851 46.7655 34.4266C47.2622 34.6343 59.0324 39.6821 67.8308 53.331C68.0258 53.6335 67.9349 54.036 67.628 54.2268C67.5173 54.2956 67.3948 54.3293 67.2749 54.3293Z" fill="#1D1B2D"/>
<path d="M2.8934 94.0479C2.57066 94.0479 2.28875 93.8142 2.24133 93.4909C1.43249 87.9252 11.6589 80.9663 21.5493 74.2347C24.7899 72.0302 27.8501 69.9465 30.5374 67.9199C41.1642 59.899 45.132 46.4578 45.1715 46.3215C45.2717 45.9775 45.6352 45.7802 45.9843 45.8736C46.3347 45.9723 46.5376 46.3306 46.4388 46.6746C46.2754 47.2433 42.3222 60.6598 31.3383 68.9507C28.626 70.9968 25.5527 73.0884 22.2989 75.3032C13.1843 81.5052 2.85256 88.5367 3.54679 93.3053C3.59817 93.6597 3.34788 93.9895 2.98825 94.0401C2.95663 94.0466 2.92502 94.0479 2.8934 94.0479Z" fill="#1D1B2D"/>
<path d="M67.5752 35.0536C67.3526 35.0536 67.1287 34.9978 66.9232 34.8836C66.3765 34.5772 66.1275 33.9332 66.3251 33.3451C68.8741 25.8111 70.198 1.47471 70.2112 1.23064C70.2389 0.717811 70.5682 0.271185 71.0543 0.0868275C71.5391 -0.0975294 72.0897 0.0167463 72.4572 0.381565L85.6304 13.3644C86.1192 13.8461 86.1468 14.6186 85.695 15.1327L68.5698 34.607C68.3142 34.8992 67.948 35.0536 67.5752 35.0536ZM72.6706 4.25955C72.3255 9.62148 71.4666 21.1814 70.0676 28.9387L82.9023 14.3447L72.6706 4.25955Z" fill="#1D1B2D"/>
<path d="M112.365 59.7211C112.288 59.7211 112.212 59.7146 112.136 59.7003L89.7411 55.8055C89.147 55.7029 88.7005 55.216 88.657 54.6227C88.6122 54.0307 88.9824 53.4841 89.5541 53.2972L113.266 45.5074C113.693 45.3659 114.162 45.4503 114.511 45.7294C114.86 46.0072 115.042 46.4422 114.992 46.8823L113.674 58.5669C113.635 58.9226 113.446 59.2472 113.155 59.4627C112.925 59.6315 112.647 59.7211 112.365 59.7211ZM95.3187 54.1397L111.211 56.9038L112.146 48.6116L95.3187 54.1397Z" fill="#1D1B2D"/>
</svg>
