<svg width="50" height="50" viewBox="0 0 50 50" fill="none" xmlns="http://www.w3.org/2000/svg">
<circle opacity="0.5" cx="25" cy="25" r="25" fill="#6341F0"/>
<path fill-rule="evenodd" clip-rule="evenodd" d="M33.8001 23.6935C33.3266 23.6851 31.9678 23.667 31.4948 23.6935C30.8455 22.358 29.8215 21.3267 28.4715 20.6957C27.6462 20.3098 26.6351 20.1975 25.9537 19.5475C25.6904 19.2966 25.4965 18.9616 25.3289 18.6082C24.7198 17.3239 24.4018 15.9749 23.9352 14.6392C23.7039 13.9764 23.4123 13.1651 22.7954 12.757C21.5352 11.9237 20.386 13.2862 20.1199 14.4272C19.6138 16.5985 20.2364 18.9282 21.2424 20.8684C19.064 20.656 16.8177 20.6247 14.6806 21.1597C13.6667 21.4134 12.589 21.9914 12.5061 23.1579C12.4475 23.9782 12.818 24.8497 13.423 25.4028C13.6212 25.5837 14.2702 26.0087 14.2669 26.0112C14.247 26.0262 13.9026 27.1481 13.8247 27.5926C13.5906 28.9295 14.4949 29.9375 15.7484 30.2412C14.7694 31.3826 15.5153 33.6707 17.2403 33.9002C17.1655 36.4721 20.1738 36.6047 21.9731 36.7624C26.834 37.1886 28.3796 36.8252 31.6352 36.0222C31.996 35.9332 33.5598 35.8295 33.9315 35.8287" fill="white"/>
<path d="M33.8001 23.6935C33.3266 23.6851 31.9678 23.667 31.4948 23.6935C30.8455 22.358 29.8215 21.3267 28.4715 20.6957C27.6462 20.3098 26.6351 20.1975 25.9537 19.5475C25.6904 19.2966 25.4965 18.9616 25.3289 18.6082C24.7198 17.3239 24.4018 15.9749 23.9352 14.6392C23.7039 13.9764 23.4123 13.1651 22.7954 12.757C21.5352 11.9237 20.386 13.2862 20.1199 14.4272C19.6138 16.5985 20.2364 18.9282 21.2424 20.8684C19.064 20.656 16.8177 20.6247 14.6806 21.1597C13.6667 21.4134 12.589 21.9914 12.5061 23.1579C12.4475 23.9782 12.818 24.8497 13.423 25.4028C13.6212 25.5837 14.2702 26.0087 14.2669 26.0112C14.247 26.0262 13.9026 27.1481 13.8247 27.5926C13.5906 28.9295 14.4949 29.9375 15.7484 30.2412C14.7694 31.3826 15.5153 33.6707 17.2403 33.9002C17.1655 36.4721 20.1738 36.6047 21.9731 36.7624C26.834 37.1886 28.3796 36.8252 31.6352 36.0222C31.996 35.9332 33.5598 35.8295 33.9315 35.8287" stroke="#1D1B2D" stroke-width="2.5" stroke-miterlimit="1.5" stroke-linecap="round" stroke-linejoin="round"/>
<path fill-rule="evenodd" clip-rule="evenodd" d="M37.3531 21.8522C36.3488 21.8439 34.6464 21.3994 33.8079 22.1313C33.2862 22.5869 33.6247 24.2194 33.635 24.8605C33.6762 27.4427 33.6694 30.0254 33.6696 32.6079C33.6696 33.6849 33.1888 35.7911 34.0477 36.644C34.846 37.4368 36.4861 37.2153 37.5025 37.2459" fill="white"/>
<path d="M37.3531 21.8522C36.3488 21.8439 34.6464 21.3994 33.8079 22.1313C33.2862 22.5869 33.6247 24.2194 33.635 24.8605C33.6762 27.4427 33.6694 30.0254 33.6696 32.6079C33.6696 33.6849 33.1888 35.7911 34.0477 36.644C34.846 37.4368 36.4861 37.2153 37.5025 37.2459" stroke="#1D1B2D" stroke-width="2.5" stroke-miterlimit="1.5" stroke-linecap="round" stroke-linejoin="round"/>
</svg>
