<svg width="89" height="95" viewBox="0 0 89 95" fill="none" xmlns="http://www.w3.org/2000/svg">
<path d="M8.24902 69.9343L8.59094 93.7767H22.9864V69.1993L8.24902 69.9343Z" fill="#009D78"/>
<path d="M50.0215 57.6122L64.417 69.1994V93.7768C64.417 93.7768 50.0215 96.5291 50.0215 93.7768C50.0215 91.0257 50.0215 57.6122 50.0215 57.6122Z" fill="#009D78"/>
<path d="M72.8438 10.9139V93.4262L87.2393 93.7766V10.9139H72.8438Z" fill="#009D78"/>
<path d="M22.9863 94.9948H8.59079C7.91792 94.9948 7.37402 94.4497 7.37402 93.778V69.1994C7.37402 68.5278 7.91792 67.9827 8.59079 67.9827H22.9863C23.6592 67.9827 24.203 68.5278 24.203 69.1994V93.778C24.203 94.4497 23.6592 94.9948 22.9863 94.9948ZM9.80755 92.5613H21.7695V70.4162H9.80755V92.5613Z" fill="#1D1B2D"/>
<path d="M42.6486 94.9945H28.2519C27.579 94.9945 27.0352 94.4494 27.0352 93.7777V57.6119C27.0352 56.9403 27.579 56.3951 28.2519 56.3951H42.6474C43.3203 56.3951 43.8642 56.9403 43.8642 57.6119V93.7765C43.8654 94.4494 43.3203 94.9945 42.6486 94.9945ZM29.4687 92.561H41.4307V58.8287H29.4687V92.561Z" fill="#1D1B2D"/>
<path d="M64.417 94.9947H50.0214C49.3486 94.9947 48.8047 94.4495 48.8047 93.7779V32.6843C48.8047 32.0126 49.3486 31.4675 50.0214 31.4675H64.417C65.0898 31.4675 65.6337 32.0126 65.6337 32.6843V93.7779C65.6337 94.4495 65.0898 94.9947 64.417 94.9947ZM51.2382 92.5611H63.2002V33.9011H51.2382V92.5611Z" fill="#1D1B2D"/>
<path d="M87.2392 94.9946H72.8437C72.1708 94.9946 71.627 94.4495 71.627 93.7778V10.9139C71.627 10.2423 72.1708 9.69714 72.8437 9.69714H87.2392C87.9121 9.69714 88.456 10.2423 88.456 10.9139V93.7778C88.456 94.4495 87.9121 94.9946 87.2392 94.9946ZM74.0605 92.5611H86.0225V12.1307H74.0605V92.5611Z" fill="#1D1B2D"/>
<path d="M1.21475 61.5153C0.674512 61.5153 0.180503 61.1514 0.0393586 60.6039C-0.129771 59.9542 0.26203 59.291 0.910564 59.1207C1.01886 59.0927 11.9077 56.1274 31.5036 40.5322C55.6357 21.3317 65.18 1.20646 65.2737 1.00569C65.5559 0.397309 66.2762 0.132055 66.8895 0.41556C67.499 0.699066 67.7631 1.42304 67.4784 2.03263C67.3835 2.23827 57.5934 22.8843 33.0197 42.4376C12.937 58.4174 1.97401 61.3607 1.51772 61.4775C1.41795 61.5019 1.31575 61.5153 1.21475 61.5153Z" fill="#1D1B2D"/>
<path d="M68.2538 12.2147C67.5821 12.2147 67.037 11.6695 67.037 10.9979C67.0358 7.53499 66.4651 3.26659 65.5453 2.40512C64.5512 2.03279 59.7462 5.30223 57.758 7.29285C57.2823 7.76861 56.5132 7.76739 56.0375 7.29285C55.5617 6.8171 55.5617 6.04689 56.0375 5.57113C56.1154 5.49204 64.1727 -2.21006 67.2098 0.627431C69.361 2.64117 69.4705 9.61808 69.4705 10.9955C69.4705 11.6708 68.9254 12.2147 68.2538 12.2147Z" fill="#1D1B2D"/>
<path d="M14.9101 94.9947C14.5767 94.9947 14.2434 94.8584 14.0037 94.5895L8.03545 87.918C7.58768 87.4167 7.63027 86.6477 8.13036 86.1999C8.63288 85.7509 9.40064 85.7935 9.84841 86.2948L15.8166 92.9663C16.2644 93.4677 16.2218 94.2366 15.7217 94.6844C15.4881 94.8925 15.1985 94.9947 14.9101 94.9947Z" fill="#1D1B2D"/>
<path d="M21.2306 94.643C20.9082 94.643 20.5857 94.5152 20.346 94.2622L8.05674 81.2708C7.59437 80.7829 7.61627 80.0127 8.10419 79.5503C8.59212 79.0904 9.36354 79.1098 9.8247 79.599L22.114 92.5903C22.5763 93.0782 22.5544 93.8485 22.0665 94.3108C21.8317 94.5323 21.5312 94.643 21.2306 94.643Z" fill="#1D1B2D"/>
<path d="M42.2974 67.6065C41.9579 67.6065 41.6196 67.4654 41.3787 67.188L34.3568 59.1123C33.9163 58.6049 33.9699 57.8371 34.4773 57.3955C34.9834 56.955 35.7512 57.0061 36.1941 57.5147L43.2173 65.5904C43.6577 66.0977 43.6042 66.8655 43.0968 67.3072C42.8656 67.5092 42.5821 67.6065 42.2974 67.6065Z" fill="#1D1B2D"/>
<path d="M42.2986 74.9801C41.9336 74.9801 41.5746 74.8171 41.3349 74.5068L29.3961 59.0576C28.9848 58.5258 29.0821 57.7617 29.6151 57.3504C30.1492 56.938 30.9122 57.0389 31.321 57.5695L43.2598 73.0187C43.6711 73.5504 43.5738 74.3145 43.0408 74.7258C42.8206 74.8986 42.5578 74.9801 42.2986 74.9801Z" fill="#1D1B2D"/>
<path d="M63.7161 41.2733C63.3449 41.2733 62.9811 41.1054 62.7414 40.7866L57.4753 33.7647C57.0713 33.2269 57.1808 32.464 57.7186 32.0612C58.2552 31.6561 59.0182 31.7668 59.4209 32.3046L64.687 39.3265C65.091 39.8643 64.9815 40.6272 64.4437 41.03C64.2259 41.1942 63.9704 41.2733 63.7161 41.2733Z" fill="#1D1B2D"/>
<path d="M63.7158 49.349C63.3301 49.349 62.9492 49.1653 62.7132 48.8234L52.5313 34.0762C52.1505 33.5226 52.2892 32.7645 52.8416 32.3837C53.394 32.0004 54.1508 32.1391 54.5353 32.6927L64.7172 47.4399C65.098 47.9935 64.9593 48.7516 64.4069 49.1324C64.194 49.2796 63.9543 49.349 63.7158 49.349Z" fill="#1D1B2D"/>
<path d="M63.7143 56.3722C63.3785 56.3722 63.0427 56.2335 62.8018 55.9609L57.5356 49.9915C57.0915 49.4878 57.1389 48.7188 57.6439 48.2734C58.1452 47.8317 58.9142 47.8756 59.3607 48.3805L64.6269 54.3499C65.071 54.8537 65.0235 55.6227 64.5185 56.068C64.2886 56.2712 64.0003 56.3722 63.7143 56.3722Z" fill="#1D1B2D"/>
<path d="M87.2399 20.2064C86.9187 20.2064 86.5998 20.0798 86.3601 19.8304L78.6362 11.7547C78.1714 11.2692 78.1896 10.499 78.6739 10.0342C79.1606 9.57064 79.9308 9.58646 80.3944 10.0719L88.1184 18.1476C88.5832 18.6343 88.5649 19.4033 88.0806 19.8681C87.8446 20.0956 87.5429 20.2064 87.2399 20.2064Z" fill="#1D1B2D"/>
<path d="M86.8889 28.6337C86.5457 28.6337 86.2027 28.4877 85.9617 28.2054L71.9166 11.7025C71.4822 11.1914 71.5431 10.4224 72.0542 9.98684C72.5652 9.55245 73.3329 9.61329 73.7698 10.1256L87.8149 26.6285C88.2493 27.1395 88.1884 27.9085 87.6773 28.3441C87.4486 28.5388 87.1675 28.6337 86.8889 28.6337Z" fill="#1D1B2D"/>
</svg>
